<svg xmlns="http://www.w3.org/2000/svg" enable-background="new 0 0 1000 1000" viewBox="0 0 1000 1000" id="walkie-talkie"><rect width="1000" height="1000" fill="#a8dab5"></rect><rect width="22" height="26" x="553.312" y="338.617" fill="#7ba884" stroke="#7ba884" stroke-linecap="round" stroke-linejoin="round" stroke-miterlimit="10" stroke-width="6"></rect><path fill="#7ba884" stroke="#7ba884" stroke-linecap="round" stroke-linejoin="round" stroke-miterlimit="10" stroke-width="6" d="M574.375 340.617h-20.126c-3.465 0-6.248-2.646-6.154-5.851l.574-19.606c.09-3.085 2.819-5.543 6.154-5.543h18.979c3.335 0 6.064 2.458 6.154 5.543l.574 19.606C580.623 337.971 577.841 340.617 574.375 340.617zM531.198 340.617h-20.126c-3.465 0-6.248-2.646-6.154-5.851l.574-19.606c.09-3.085 2.819-5.543 6.154-5.543h18.979c3.335 0 6.064 2.458 6.154 5.543l.574 19.606C537.446 337.971 534.663 340.617 531.198 340.617zM475.113 342.617h-32l3.235-118.961c.137-5.031 4.255-9.039 9.288-9.039h6.953c5.033 0 9.151 4.007 9.288 9.039L475.113 342.617z"></path><rect width="40" height="26" x="439.113" y="338.617" fill="#7ba884" stroke="#7ba884" stroke-linecap="round" stroke-linejoin="round" stroke-miterlimit="10" stroke-width="6"></rect><rect width="22" height="26" x="510.645" y="338.617" fill="#7ba884" stroke="#7ba884" stroke-linecap="round" stroke-linejoin="round" stroke-miterlimit="10" stroke-width="6"></rect><path fill="#7ba884" stroke="#7ba884" stroke-linecap="round" stroke-linejoin="round" stroke-miterlimit="10" stroke-width="6" d="M423.394 423.617c-.558-1.403-.871-2.922-.871-4.505V382.15c0-10.347 7.178-19.338 17.283-21.56 45.348-9.974 92.085-9.974 137.433 0 10.105 2.222 17.283 11.214 17.283 21.56v36.961c0 1.583-.313 3.103-.871 4.505H423.394zM421.523 439.426c0 78.816 0 157.633 0 236.449.001 9.956 6.035 17.81 15.248 19.934 11.07 2.589 22.464 4.348 34.027 5.511 3.235.322 6.504-1.285 8.264-4.028 6.393-9.986 17.69-16.771 30.571-16.712 12.611.04 23.7 6.633 30.157 16.356 1.824 2.74 5.124 4.325 8.356 3.964 10.185-1.149 20.224-2.78 30.01-5.064 9.26-2.129 15.367-9.959 15.368-19.962 0-78.816 0-157.633 0-236.449C539.569 423.663 475.478 423.663 421.523 439.426z"></path><path fill="#7ba884" stroke="#7ba884" stroke-linecap="round" stroke-linejoin="round" stroke-miterlimit="10" stroke-width="6" d="
	M597.523,446.842v-42.085c0-8.841-6.417-16.402-15.15-17.78c-49.593-7.824-100.108-7.824-149.701,0
	c-8.733,1.378-15.15,8.939-15.15,17.78v42.085c0,3.758,1.276,7.436,3.739,10.275c6.391,7.368,10.261,16.98,10.261,27.499v80
	c0,10.519-3.87,20.131-10.261,27.499c-2.463,2.839-3.739,6.517-3.739,10.275v42.085c0,8.841,6.417,16.402,15.15,17.78
	c49.593,7.824,100.108,7.824,149.701,0c8.733-1.378,15.15-8.939,15.15-17.78v-42.085c0-3.758-1.276-7.436-3.739-10.275
	c-6.391-7.368-10.261-16.98-10.261-27.499v-80c0-10.519,3.87-20.131,10.261-27.499C596.247,454.279,597.523,450.601,597.523,446.842
	z"></path><path fill="#404041" stroke="#404041" stroke-linecap="round" stroke-linejoin="round" stroke-miterlimit="10" stroke-width="6" d="M405.485 491.717h-.766c-2.982 0-5.4-2.418-5.4-5.4l0 0c0-2.982 2.418-5.4 5.4-5.4h.766c2.982 0 5.4 2.418 5.4 5.4l0 0C410.885 489.299 408.468 491.717 405.485 491.717zM405.485 512.517h-.766c-2.982 0-5.4-2.418-5.4-5.4l0 0c0-2.982 2.418-5.4 5.4-5.4h.766c2.982 0 5.4 2.418 5.4 5.4l0 0C410.885 510.099 408.468 512.517 405.485 512.517z"></path><rect width="22" height="26" x="538.312" y="338.617" fill="#635142"></rect><rect width="11" height="26" x="549.312" y="338.617" fill="#404041"></rect><rect width="22" height="26" x="538.312" y="338.617" fill="none" stroke="#404041" stroke-linecap="round" stroke-linejoin="round" stroke-miterlimit="10" stroke-width="6"></rect><path fill="#705d4c" d="M559.375,340.617h-20.126c-3.465,0-6.248-2.646-6.154-5.851l0.574-19.606
	c0.09-3.085,2.819-5.543,6.154-5.543h18.979c3.335,0,6.064,2.458,6.154,5.543l0.574,19.606
	C565.623,337.971,562.841,340.617,559.375,340.617z"></path><path fill="#897160" d="M537.56,336.793l-1.517-0.051l0.791-23.487l1.517,0.051
	c1.932,0.065,3.445,1.684,3.38,3.616l-0.555,16.491C541.111,335.345,539.492,336.858,537.56,336.793z"></path><path fill="#635142" d="M564.956,315.159c-0.09-3.085-2.819-5.543-6.154-5.543h-12.75
	c3.335,0,6.064,2.458,6.154,5.543l0.574,19.606c0.094,3.206-2.689,5.851-6.154,5.851h12.75c3.465,0,6.248-2.646,6.154-5.851
	L564.956,315.159z" opacity=".81"></path><path fill="none" stroke="#404041" stroke-linecap="round" stroke-linejoin="round" stroke-miterlimit="10" stroke-width="6" d="
	M559.375,340.617h-20.126c-3.465,0-6.248-2.646-6.154-5.851l0.574-19.606c0.09-3.085,2.819-5.543,6.154-5.543h18.979
	c3.335,0,6.064,2.458,6.154,5.543l0.574,19.606C565.623,337.971,562.841,340.617,559.375,340.617z"></path><path fill="#705d4c" d="M516.198,340.617h-20.126c-3.465,0-6.248-2.646-6.154-5.851l0.574-19.606
	c0.09-3.085,2.819-5.543,6.154-5.543h18.979c3.335,0,6.064,2.458,6.154,5.543l0.574,19.606
	C522.446,337.971,519.663,340.617,516.198,340.617z"></path><path fill="#897160" d="M494.383,336.793l-1.517-0.051l0.791-23.487l1.517,0.051
	c1.932,0.065,3.445,1.684,3.38,3.616l-0.555,16.491C497.934,335.345,496.315,336.858,494.383,336.793z"></path><path fill="#635142" d="M521.778,315.159c-0.09-3.085-2.819-5.543-6.154-5.543h-12.75
	c3.335,0,6.064,2.458,6.154,5.543l0.574,19.606c0.094,3.206-2.689,5.851-6.154,5.851h12.75c3.465,0,6.248-2.646,6.154-5.851
	L521.778,315.159z" opacity=".81"></path><path fill="none" stroke="#404041" stroke-linecap="round" stroke-linejoin="round" stroke-miterlimit="10" stroke-width="6" d="
	M516.198,340.617h-20.126c-3.465,0-6.248-2.646-6.154-5.851l0.574-19.606c0.09-3.085,2.819-5.543,6.154-5.543h18.979
	c3.335,0,6.064,2.458,6.154,5.543l0.574,19.606C522.446,337.971,519.663,340.617,516.198,340.617z"></path><path fill="#705d4c" d="M460.113,342.617h-32l3.235-118.961c0.137-5.031,4.255-9.039,9.288-9.039h6.953
	c5.033,0,9.151,4.007,9.288,9.039L460.113,342.617z"></path><path fill="#897160" d="M431.558,219.783c-0.119,0.562-0.193,1.141-0.209,1.736l-3.235,121.097h8.333
	c0,0,2.362-86.932,3.174-114.532C439.755,223.539,436.106,219.783,431.558,219.783L431.558,219.783z"></path><path fill="#635142" d="M435.924,217.15c5.033-0.014,9.162,3.983,9.312,9.013l3.483,116.452
	l12.568-0.034l-3.557-118.952c-0.15-5.031-4.279-9.027-9.312-9.013l-6.953,0.019c-2.445,0.007-4.666,0.964-6.323,2.517
	L435.924,217.15z" opacity=".81"></path><path fill="none" stroke="#404041" stroke-linecap="round" stroke-linejoin="round" stroke-miterlimit="10" stroke-width="6" d="
	M460.113,342.617h-32l3.235-118.961c0.137-5.031,4.255-9.039,9.288-9.039h6.953c5.033,0,9.151,4.007,9.288,9.039L460.113,342.617z"></path><rect width="40" height="26" x="424.113" y="338.617" fill="#635142"></rect><path fill="#897160" d="M428.113,357.733L428.113,357.733c-2.07,0-3.747-1.678-3.747-3.747
	v-10.622c0-2.07,1.678-3.747,3.747-3.747l0,0c2.07,0,3.747,1.678,3.747,3.747v10.622
	C431.861,356.055,430.183,357.733,428.113,357.733z" opacity=".75"></path><rect width="16" height="26" x="448.113" y="338.617" fill="#404041"></rect><rect width="40" height="26" x="424.113" y="338.617" fill="none" stroke="#404041" stroke-linecap="round" stroke-linejoin="round" stroke-miterlimit="10" stroke-width="6"></rect><rect width="22" height="26" x="495.645" y="338.617" fill="#635142"></rect><rect width="11" height="26" x="506.645" y="338.617" fill="#404041"></rect><rect width="22" height="26" x="495.645" y="338.617" fill="none" stroke="#404041" stroke-linecap="round" stroke-linejoin="round" stroke-miterlimit="10" stroke-width="6"></rect><path fill="#705d4c" d="M408.394,423.617c-0.558-1.403-0.871-2.922-0.871-4.505V382.15
	c0-10.347,7.178-19.338,17.283-21.56c45.348-9.974,92.085-9.974,137.433,0c10.105,2.222,17.283,11.214,17.283,21.56v36.961
	c0,1.583-0.313,3.103-0.871,4.505H408.394z"></path><path fill="#897160" d="M424.135,382.15c0-10.347,7.178-19.338,17.284-21.56
	c19.947-4.387,40.163-6.842,60.411-7.37c-25.784-0.672-51.621,1.783-77.022,7.37c-10.105,2.222-17.283,11.214-17.283,21.56v36.961
	c0,1.583,0.313,3.103,0.871,4.505h16.611c-0.558-1.403-0.871-2.922-0.871-4.505V382.15z"></path><path fill="#635142" d="M408.714,444.142c-0.558-1.403-0.871-2.922-0.871-4.505v-36.961
	c0-10.347,7.178-19.338,17.283-21.56c45.348-9.974,92.085-9.974,137.433,0c10.105,2.222,17.283,11.214,17.283,21.56v36.961
	c0,1.583-0.313,3.103-0.871,4.505H408.714z"></path><path fill="#635142" d="M562.24,360.589c-25.616-5.634-51.675-8.083-77.677-7.352
	c20.029,0.563,40.024,3.013,59.756,7.352c10.105,2.222,17.283,11.214,17.283,21.56v36.961c0,1.583-0.313,3.103-0.871,4.505h17.921
	c0.558-1.403,0.871-2.922,0.871-4.505V382.15C579.523,371.803,572.345,362.812,562.24,360.589z"></path><path fill="none" stroke="#404041" stroke-linecap="round" stroke-linejoin="round" stroke-miterlimit="10" stroke-width="6" d="
	M408.394,423.617c-0.558-1.403-0.871-2.922-0.871-4.505V382.15c0-10.347,7.178-19.338,17.283-21.56
	c45.348-9.974,92.085-9.974,137.433,0c10.105,2.222,17.283,11.214,17.283,21.56v36.961c0,1.583-0.313,3.103-0.871,4.505H408.394z"></path><path fill="#705d4c" d="M406.523,439.426c0,78.816,0,157.633,0,236.449
	c0.001,9.956,6.035,17.81,15.248,19.934c11.07,2.589,22.464,4.348,34.027,5.511c3.235,0.322,6.504-1.285,8.264-4.028
	c6.393-9.986,17.69-16.771,30.571-16.712c12.611,0.04,23.7,6.633,30.157,16.356c1.824,2.74,5.124,4.325,8.356,3.964
	c10.185-1.149,20.224-2.78,30.01-5.064c9.26-2.129,15.367-9.959,15.368-19.962c0-78.816,0-157.633,0-236.449
	C524.569,423.663,460.478,423.663,406.523,439.426z"></path><path fill="#635142" d="M458.161,694.557c-6.544-0.726-11.883-1.123-18.777-2.736
	c-1.087-0.251-2.13-0.581-3.123-0.985c-4.292-1.747-8.969,1.548-8.969,6.181l0,0c9.326,1.937,18.856,3.331,28.508,4.302
	c3.235,0.322,4.216,1.002,5.976-1.74c0.025-0.039,0.048-0.13,0.07-0.261C462.242,696.974,460.524,694.82,458.161,694.557z"></path><path fill="#897160" d="M417.898,692.638c5.643,2.312,7.473-4.487,6.861-7.379
	c-0.851-4.021-0.624-10.025-0.624-13.371c0-78.816,0-157.633,0-236.449c2.574-0.752,5.177-1.456,7.795-2.137
	c-8.657,1.674-17.151,3.712-25.407,6.124c0,78.816,0,157.633,0,236.449c0.001,9.956-0.447,13.618,8.767,15.741
	C415.931,691.766,416.624,692.116,417.898,692.638z"></path><path fill="#635142" d="M404.624,581.571c0,28.819,0,57.638,0,86.457c2.941,1.974,6.341,3.354,10.059,3.941
	c25.041,3.951,50.591,5.954,75.941,5.954s50.9-2.003,75.941-5.954c3.717-0.586,7.118-1.967,10.059-3.941c0-28.819,0-57.638,0-86.457
	c-1.958-4.424-3-9.241-3-14.156v-80c0-4.916,1.042-9.732,3-14.156c0-11.345,0-22.69,0-34.035c-53.955-15.763-118.046-15.763-172,0
	c0,11.345,0,22.69,0,34.035c1.958,4.424,3,9.24,3,14.156v80C407.624,572.33,406.582,577.146,404.624,581.571z"></path><path fill="#635142" d="M556.138,434.909c1.832,0.493,3.655,1.001,5.465,1.53
			c0,78.816,0,157.633,0,236.449c-0.001,10.003-6.108,17.833-15.368,19.962c-5.897,1.376-10.257,2.067-15.702,2.278
			c-2.361,0.092-4.269,2.112-4.084,4.468c0.009,0.117,0.026,0.2,0.051,0.239c1.824,2.74,3.415,2.427,6.647,2.066
			c10.185-1.149,20.224-2.78,30.01-5.064c9.26-2.129,15.367-9.959,15.368-19.962c0-78.816,0-157.633,0-236.449
			C571.231,438.295,563.75,436.463,556.138,434.909z"></path><path fill="none" stroke="#404041" stroke-linecap="round" stroke-linejoin="round" stroke-miterlimit="10" stroke-width="6" d="
	M406.523,439.426c0,78.816,0,157.633,0,236.449c0.001,9.956,6.035,17.81,15.248,19.934c11.07,2.589,22.464,4.348,34.027,5.511
	c3.235,0.322,6.504-1.285,8.264-4.028c6.393-9.986,17.69-16.771,30.571-16.712c12.611,0.04,23.7,6.633,30.157,16.356
	c1.824,2.74,5.124,4.325,8.356,3.964c10.185-1.149,20.224-2.78,30.01-5.064c9.26-2.129,15.367-9.959,15.368-19.962
	c0-78.816,0-157.633,0-236.449C524.569,423.663,460.478,423.663,406.523,439.426z"></path><path fill="#fec556" d="M582.523,446.842v-42.085c0-8.841-6.417-16.402-15.15-17.78
	c-49.593-7.824-100.108-7.824-149.701,0c-8.733,1.378-15.15,8.939-15.15,17.78v42.085c0,3.758,1.276,7.436,3.739,10.275
	c6.391,7.368,10.261,16.98,10.261,27.499v80c0,10.519-3.87,20.131-10.261,27.499c-2.463,2.839-3.739,6.517-3.739,10.275v42.085
	c0,8.841,6.417,16.402,15.15,17.78c49.593,7.824,100.108,7.824,149.701,0c8.733-1.378,15.15-8.939,15.15-17.78v-42.085
	c0-3.758-1.276-7.436-3.739-10.275c-6.391-7.368-10.261-16.98-10.261-27.499v-80c0-10.519,3.87-20.131,10.261-27.499
	C581.247,454.279,582.523,450.601,582.523,446.842z"></path><path fill="#f8a342" d="M550.531 384.651c-21.42-2.601-42.97-3.77-64.507-3.479 21.567.292 43.117 2.038 64.507 5.234V384.651zM578.784 457.117c2.463-2.839 3.739-6.517 3.739-10.275v-42.085c0-2.877-.68-5.617-1.899-8.052-2.768-5.528-11.101-3.566-11.101 2.616v5.435 5.747 36.338c0 3.758-1.276 7.436-3.739 10.275-6.391 7.368-10.261 16.98-10.261 27.499v80c0 10.519 3.87 20.132 10.261 27.499 2.463 2.839 3.739 6.517 3.739 10.275v42.085c0 .036 0 .072 0 .108-.033 5.445-4.237 9.967-9.632 10.706-43.069 5.9-90.328 5.815-133.537.682-4.289-.509-8.064 2.753-8.064 6.977 25.725 3.473 53.11 5.115 80.35 4.757-4.205.166-8.411.297-12.618.354 27.18.368 54.384-1.552 81.316-5.799 8.746-1.379 15.184-8.931 15.184-17.785v-8-34.085c0-3.758-1.276-7.436-3.739-10.275-6.391-7.367-10.261-16.98-10.261-27.499v-80C568.523 474.098 572.394 464.485 578.784 457.117z"></path><path fill="#fdd08a" d="M494.624,516.397c0-49.429-5.565-95.652-15.232-135.086
	c-20.643,0.565-41.26,2.439-61.719,5.667c-8.733,1.378-15.15,8.939-15.15,17.78v42.085c0,3.758,1.276,7.436,3.739,10.275
	c6.391,7.368,10.261,16.98,10.261,27.499v80c0,10.519-3.87,20.131-10.261,27.499c-2.463,2.839-3.739,6.517-3.739,10.275v42.085
	c0,8.841,6.417,16.402,15.15,17.78c19.025,3.002,38.186,4.841,57.378,5.539C487.377,625.06,494.624,572.814,494.624,516.397z" opacity=".39"></path><path fill="#fdd08a" d="M414.379,446.842v-42.085c0-0.039,0-0.077,0-0.116
	c0.037-5.762,4.477-10.553,10.179-11.383c0.637-0.093,1.233-0.178,1.74-0.247c42.731-5.863,92.945-4.719,135.96,0.804
	c4.094,0.526,8.043-1.687,9.738-5.451l0,0c-23.808-3.391-59.489-7.416-83.477-7.216c-0.23,0.002-0.459,0.005-0.689,0.006
	c-1.205,0.003-2.965,0.002-4.169,0.039c-1.987,0.061-3.944,0.106-5.904,0.166c-2.945,0.091-5.888,0.209-8.831,0.354
	c-0.479,0.023-0.957,0.045-1.436,0.07c-2.75,0.144-5.5,0.313-8.248,0.504c-0.643,0.044-1.286,0.085-1.929,0.132
	c-2.572,0.189-5.142,0.404-7.711,0.635c-0.787,0.07-1.575,0.134-2.362,0.208c-2.435,0.231-4.869,0.489-7.301,0.757
	c-0.887,0.097-1.775,0.185-2.661,0.287c-2.42,0.28-4.838,0.591-7.255,0.908c-0.864,0.113-1.73,0.213-2.593,0.331
	c-3.136,0.429-6.269,0.888-9.399,1.38c-0.108,0.017-0.217,0.031-0.326,0.048c-0.002,0-0.004,0.001-0.005,0.001
	c-0.009,0.001-0.017,0.003-0.026,0.004c-8.089,1.276-14.18,7.86-15.036,15.849c-0.01,0.097-0.03,0.191-0.039,0.288
	c-0.049,0.542-0.074,1.09-0.074,1.643v42.085c0,0.546,0.035,1.089,0.089,1.629c0.003,0.033,0.009,0.065,0.013,0.098
	c0.331,3.143,1.555,6.147,3.638,8.548c6.391,7.368,10.261,16.98,10.261,27.499v1.91v78.09c0,0.657-0.015,1.311-0.045,1.961
	c-0.179,3.9-0.891,7.661-2.064,11.212c-0.312,0.943-0.664,1.867-1.04,2.779c-0.738,1.794-1.594,3.525-2.563,5.184
	c-0.45,0.77-0.921,1.525-1.418,2.263c-0.962,1.43-2.005,2.801-3.131,4.099c-0.924,1.065-1.68,2.247-2.265,3.508
	c-0.302,0.651-0.544,1.328-0.754,2.015c-0.332,1.087-0.562,2.207-0.66,3.348c-0.04,0.466-0.06,0.934-0.06,1.404v42.085
	c0,0.586,0.033,1.164,0.089,1.737c0.005,0.047,0.014,0.094,0.019,0.141c0.055,0.529,0.133,1.051,0.233,1.566
	c0.002,0.01,0.003,0.021,0.005,0.031v-0.01c1.39,7.102,6.962,12.818,14.255,14.203c0-4.223-0.731-8.398-1.964-12.436
	c-0.507-1.661-0.78-3.418-0.78-5.231v-42.085c0-3.758,1.276-7.436,3.739-10.275c6.391-7.367,10.261-16.98,10.261-27.499v-80
	c0-10.519-3.87-20.132-10.261-27.499C415.656,454.279,414.379,450.601,414.379,446.842z" opacity=".88"></path><path fill="none" stroke="#404041" stroke-linecap="round" stroke-linejoin="round" stroke-miterlimit="10" stroke-width="6" d="
	M582.523,446.842v-42.085c0-8.841-6.417-16.402-15.15-17.78c-49.593-7.824-100.108-7.824-149.701,0
	c-8.733,1.378-15.15,8.939-15.15,17.78v42.085c0,3.758,1.276,7.436,3.739,10.275c6.391,7.368,10.261,16.98,10.261,27.499v80
	c0,10.519-3.87,20.131-10.261,27.499c-2.463,2.839-3.739,6.517-3.739,10.275v42.085c0,8.841,6.417,16.402,15.15,17.78
	c49.593,7.824,100.108,7.824,149.701,0c8.733-1.378,15.15-8.939,15.15-17.78v-42.085c0-3.758-1.276-7.436-3.739-10.275
	c-6.391-7.368-10.261-16.98-10.261-27.499v-80c0-10.519,3.87-20.131,10.261-27.499C581.247,454.279,582.523,450.601,582.523,446.842
	z"></path><path fill="#f48b34" stroke="#f48b34" stroke-linecap="round" stroke-linejoin="round" stroke-miterlimit="10" stroke-width="6" d="
	M532.124,525.617h-78c-6.627,0-12-5.373-12-12v-68c0-6.627,5.373-12,12-12h78c6.627,0,12,5.373,12,12v68
	C544.124,520.244,538.751,525.617,532.124,525.617z" opacity=".59"></path><path fill="#705d4c" d="M532.124,522.617h-78c-6.627,0-12-5.373-12-12v-68c0-6.627,5.373-12,12-12h78
	c6.627,0,12,5.373,12,12v68C544.124,517.244,538.751,522.617,532.124,522.617z"></path><path fill="#635142" d="M448.092 510.617v-68c0-6.627 5.373-12 12-12h-5.327c-6.627 0-12 5.373-12 12v68c0 6.627 5.373 12 12 12h5.327C453.464 522.617 448.092 517.244 448.092 510.617zM532.124 430.617h-6.011c6.627 0 12 5.373 12 12v68c0 6.627-5.373 12-12 12h6.011c6.627 0 12-5.373 12-12v-68C544.124 435.989 538.751 430.617 532.124 430.617z"></path><path fill="none" stroke="#404041" stroke-linecap="round" stroke-linejoin="round" stroke-miterlimit="10" stroke-width="6" d="
	M532.124,522.617h-78c-6.627,0-12-5.373-12-12v-68c0-6.627,5.373-12,12-12h78c6.627,0,12,5.373,12,12v68
	C544.124,517.244,538.751,522.617,532.124,522.617z"></path><circle cx="460.092" cy="478.917" r="4" fill="#404041"></circle><circle cx="471.603" cy="478.917" r="4" fill="#404041"></circle><circle cx="483.113" cy="478.917" r="4" fill="#404041"></circle><circle cx="494.624" cy="478.917" r="4" fill="#404041"></circle><circle cx="506.135" cy="478.917" r="4" fill="#404041"></circle><circle cx="517.645" cy="478.917" r="4" fill="#404041"></circle><circle cx="529.156" cy="478.917" r="4" fill="#404041"></circle><circle cx="465.847" cy="467.517" r="4" fill="#404041"></circle><circle cx="477.358" cy="467.517" r="4" fill="#404041"></circle><circle cx="488.869" cy="467.517" r="4" fill="#404041"></circle><circle cx="500.379" cy="467.517" r="4" fill="#404041"></circle><circle cx="511.89" cy="467.517" r="4" fill="#404041"></circle><circle cx="523.401" cy="467.517" r="4" fill="#404041"></circle><circle cx="471.603" cy="456.117" r="4" fill="#404041"></circle><circle cx="483.113" cy="456.117" r="4" fill="#404041"></circle><circle cx="494.624" cy="456.117" r="4" fill="#404041"></circle><circle cx="506.135" cy="456.117" r="4" fill="#404041"></circle><circle cx="517.645" cy="456.117" r="4" fill="#404041"></circle><circle cx="465.847" cy="490.317" r="4" fill="#404041"></circle><circle cx="477.358" cy="490.317" r="4" fill="#404041"></circle><circle cx="488.869" cy="490.317" r="4" fill="#404041"></circle><circle cx="500.379" cy="490.317" r="4" fill="#404041"></circle><circle cx="511.89" cy="490.317" r="4" fill="#404041"></circle><circle cx="523.401" cy="490.317" r="4" fill="#404041"></circle><circle cx="471.603" cy="501.717" r="4" fill="#404041"></circle><circle cx="460.092" cy="501.717" r="4" fill="#404041" opacity=".35"></circle><circle cx="460.092" cy="456.117" r="4" fill="#404041" opacity=".35"></circle><circle cx="477.358" cy="446.45" r="4" fill="#404041" opacity=".35"></circle><circle cx="488.869" cy="446.45" r="4" fill="#404041" opacity=".35"></circle><circle cx="500.379" cy="446.45" r="4" fill="#404041" opacity=".35"></circle><circle cx="511.89" cy="446.45" r="4" fill="#404041" opacity=".35"></circle><circle cx="483.113" cy="501.717" r="4" fill="#404041"></circle><circle cx="494.624" cy="501.717" r="4" fill="#404041"></circle><circle cx="506.135" cy="501.117" r="4" fill="#404041"></circle><circle cx="517.645" cy="501.717" r="4" fill="#404041"></circle><circle cx="529.156" cy="501.717" r="4" fill="#404041" opacity=".35"></circle><circle cx="529.156" cy="456.117" r="4" fill="#404041" opacity=".35"></circle><path fill="#f48b34" stroke="#f48b34" stroke-linecap="round" stroke-linejoin="round" stroke-miterlimit="10" stroke-width="4" d="
	M506.407,610.424h-20c-3.314,0-6-2.686-6-6v-20c0-3.314,2.686-6,6-6h20c3.314,0,6,2.686,6,6v20
	C512.407,607.738,509.721,610.424,506.407,610.424z" opacity=".59"></path><path fill="#dd3748" d="M503.624,610.424h-20c-3.314,0-6-2.686-6-6v-20c0-3.314,2.686-6,6-6h20
	c3.314,0,6,2.686,6,6v20C509.624,607.738,506.938,610.424,503.624,610.424z"></path><path fill="none" stroke="#404041" stroke-linecap="round" stroke-linejoin="round" stroke-miterlimit="10" stroke-width="3" d="
	M483.624,591.383v-4.958c0-1.105,0.895-2,2-2h12" opacity=".3"></path><path fill="none" stroke="#404041" stroke-linecap="round" stroke-linejoin="round" stroke-miterlimit="10" stroke-width="4" d="
	M503.624,610.424h-20c-3.314,0-6-2.686-6-6v-20c0-3.314,2.686-6,6-6h20c3.314,0,6,2.686,6,6v20
	C509.624,607.738,506.938,610.424,503.624,610.424z"></path><path fill="#f48b34" stroke="#f48b34" stroke-linecap="round" stroke-linejoin="round" stroke-miterlimit="10" stroke-width="4" d="
	M551.574,610.424h-20c-3.314,0-6-2.686-6-6v-20c0-3.314,2.686-6,6-6h20c3.314,0,6,2.686,6,6v20
	C557.574,607.738,554.887,610.424,551.574,610.424z" opacity=".59"></path><path fill="#fec556" d="M496.485,590.836v2.831c-0.372-0.403-0.723-0.695-1.052-0.877
		c-0.368-0.177-0.749-0.266-1.143-0.266c-0.74,0-1.344,0.253-1.811,0.76c-0.16,0.182-0.29,0.371-0.39,0.568
		c-0.1,0.197-0.174,0.42-0.224,0.669c-0.05,0.249-0.075,0.501-0.075,0.756c0,0.762,0.234,1.396,0.701,1.902
		c0.472,0.498,1.071,0.747,1.798,0.747c0.39,0,0.77-0.093,1.143-0.279c0.329-0.169,0.68-0.459,1.052-0.87v2.837
		c-0.48,0.225-0.889,0.374-1.227,0.448c-0.42,0.1-0.831,0.149-1.234,0.149c-0.51,0-0.99-0.062-1.44-0.185
		c-0.45-0.123-0.853-0.311-1.208-0.562c-0.708-0.485-1.248-1.082-1.619-1.792c-0.371-0.736-0.557-1.552-0.557-2.448
		c0-0.719,0.121-1.379,0.364-1.98c0.108-0.29,0.245-0.564,0.411-0.821c0.167-0.258,0.382-0.525,0.646-0.802
		c0.453-0.467,0.964-0.814,1.531-1.039c0.562-0.229,1.187-0.344,1.874-0.344c0.394,0,0.804,0.048,1.233,0.143
		C495.683,590.494,496.091,590.645,496.485,590.836z"></path><path fill="#514c4c" d="M549.791,610.424h-20c-3.314,0-6-2.686-6-6v-20c0-3.314,2.686-6,6-6h20
	c3.314,0,6,2.686,6,6v20C555.791,607.738,553.104,610.424,549.791,610.424z"></path><path fill="none" stroke="#404041" stroke-linecap="round" stroke-linejoin="round" stroke-miterlimit="10" stroke-width="3" d="
	M528.791,591.383v-4.958c0-1.105,0.895-2,2-2h12"></path><path fill="none" stroke="#404041" stroke-linecap="round" stroke-linejoin="round" stroke-miterlimit="10" stroke-width="4" d="
	M548.791,610.424h-20c-3.314,0-6-2.686-6-6v-20c0-3.314,2.686-6,6-6h20c3.314,0,6,2.686,6,6v20
	C554.791,607.738,552.104,610.424,548.791,610.424z"></path><path fill="#fec556" d="M538.049,597.637l-4.264-4.264c-1.032-1.032-0.301-2.796,1.158-2.796h8.529
	c1.459,0,2.19,1.764,1.158,2.796l-4.264,4.264C539.726,598.276,538.689,598.276,538.049,597.637z"></path><path fill="#f48b34" stroke="#f48b34" stroke-linecap="round" stroke-linejoin="round" stroke-miterlimit="10" stroke-width="4" d="
	M462.24,610.424h-20c-3.314,0-6-2.686-6-6v-20c0-3.314,2.686-6,6-6h20c3.314,0,6,2.686,6,6v20
	C468.24,607.738,465.554,610.424,462.24,610.424z" opacity=".59"></path><path fill="#514c4c" d="M458.457,610.424h-20c-3.314,0-6-2.686-6-6v-20c0-3.314,2.686-6,6-6h20
	c3.314,0,6,2.686,6,6v20C464.457,607.738,461.771,610.424,458.457,610.424z"></path><path fill="none" stroke="#404041" stroke-linecap="round" stroke-linejoin="round" stroke-miterlimit="10" stroke-width="3" d="
	M438.457,591.383v-4.958c0-1.105,0.895-2,2-2h12"></path><path fill="none" stroke="#404041" stroke-linecap="round" stroke-linejoin="round" stroke-miterlimit="10" stroke-width="4" d="
	M459.457,610.424h-20c-3.314,0-6-2.686-6-6v-20c0-3.314,2.686-6,6-6h20c3.314,0,6,2.686,6,6v20
	C465.457,607.738,462.771,610.424,459.457,610.424z"></path><path fill="#fec556" d="M447.716,591.057l-4.264,4.264c-1.032,1.032-0.301,2.796,1.158,2.796h8.529
	c1.459,0,2.19-1.764,1.158-2.796l-4.264-4.264C449.392,590.417,448.356,590.417,447.716,591.057z"></path><path fill="#f48b34" d="M512.574 408.888h-16.766c-1.243 0-2.25-1.007-2.25-2.25l0 0c0-1.243 1.007-2.25 2.25-2.25h16.766c1.243 0 2.25 1.007 2.25 2.25l0 0C514.824 407.881 513.817 408.888 512.574 408.888zM512.574 415.004h-36.966c-1.243 0-2.25-1.007-2.25-2.25l0 0c0-1.243 1.007-2.25 2.25-2.25h36.966c1.243 0 2.25 1.007 2.25 2.25l0 0C514.824 413.997 513.817 415.004 512.574 415.004z" opacity=".36"></path></svg>