<svg xmlns="http://www.w3.org/2000/svg" width="500" height="500" fill="none" viewBox="0 0 500 500" id="woman-applying-facial-cream"><path fill="#B5DCEA" fill-rule="evenodd" d="M76.097 111.523C76.097 111.523 70.835 153.662 69.947 165.96C69.059 178.259 70.448 218.644 70.448 218.644C70.448 218.644 76.769 308.233 79.529 322.392C82.289 336.549 84.426 351.744 88.651 355.098C92.876 358.454 201.968 355.105 222.441 351.596C242.912 348.087 349.62 351.17 365.051 350.187C380.484 349.206 430.48 343.42 437.423 325.461C444.366 307.502 433.376 257.975 433.376 257.975C433.376 257.975 432.722 210.616 431.87 197.89C431.017 185.165 427.541 140.45 427.541 140.45L424.173 112.089C424.173 112.089 391.63 108.499 379.075 109.09C366.517 109.681 337.169 111.301 335.381 110.265C333.593 109.229 195.244 103.406 195.244 103.406L165.363 106.795C165.363 106.795 121.296 109.136 108.623 107.574C95.95 106.012 76.097 111.523 76.097 111.523Z" clip-rule="evenodd"></path><path fill="#988B34" fill-rule="evenodd" d="M173.221 98.128C173.221 98.128 161.913 109.831 148.324 138.673C134.735 167.515 130.88 183.468 135.587 210.607C140.295 237.746 141.778 265.138 141.778 265.138C141.778 265.138 149.581 300.853 163.609 310.86C177.637 320.867 224.927 330.81 224.927 330.81L275.547 327.021C275.547 327.021 292.627 325.728 308.408 315.536C324.191 305.344 343.068 295.577 346.424 288.065C349.78 280.553 354.375 201.168 355.587 187.134C356.801 173.1 362.398 143.485 347.423 121.38C332.447 99.275 303.699 67.507 291.145 60.329C278.591 53.15 263.733 51.054 252.006 50.323C240.28 49.591 232.088 48.739 228.186 46.592C224.284 44.444 219.4 44.379 215.826 48.912C212.251 53.445 210.446 60.072 205.014 60.381C199.583 60.69 194.75 57.676 191.281 64.518C187.814 71.361 183.713 81.688 177.769 85.504C171.825 89.319 165.484 89.232 163.609 92.144C161.735 95.056 163.609 107.251 163.609 107.251L173.221 98.128Z" clip-rule="evenodd"></path><path fill="#B5DCEA" fill-rule="evenodd" d="M136.439 267.164C136.439 267.164 150.921 261.386 153.908 259.885C156.894 258.386 164.683 255.269 164.683 255.269L185.316 243.125L190.24 245.354L189.181 250.604L191.959 255.325C191.959 255.325 184.188 264.37 180.603 264.761C177.016 265.152 163.512 262.876 163.512 262.876L155.951 266.243L139.817 273.894L136.439 267.164Z" clip-rule="evenodd"></path><path fill="#988B34" fill-rule="evenodd" d="M370.245 305.124C370.245 305.124 354.314 312.153 350.984 322.863C347.653 333.574 347.993 347.096 361.066 355.466C374.138 363.838 392.351 365.355 406.228 356.967C420.103 348.581 423.119 324.416 412.132 314.772C401.142 305.127 386.721 301.686 380.211 301.818C373.701 301.95 370.245 305.124 370.245 305.124Z" clip-rule="evenodd"></path><path fill="#E99A40" fill-rule="evenodd" d="M183.367 173.738C183.367 173.738 172.067 196.23 171.512 225.617L169.028 250.454C169.028 250.454 184.325 242.28 186.418 241.971C188.513 241.663 188.758 245.87 190.703 246.365C192.646 246.862 187.391 248.712 189.665 250.79C191.939 252.869 190.666 257.229 188.555 259.78C186.443 262.333 175.735 265.111 175.735 265.111C175.735 265.111 181.612 283.445 194.652 297.599C207.694 311.754 217.743 320.998 218.668 325.441C219.593 329.886 220.447 358.51 219.817 366.896C219.188 375.282 213.788 379.24 193.446 382.692C173.102 386.143 127.152 386.718 114.169 399.025C101.186 411.332 91.7339 436.629 91.7339 436.629C91.7339 436.629 133.101 425.657 168.362 420.837C203.625 416.019 279.342 412.011 332.414 414.803C385.486 417.594 425.475 423.957 431.333 426.191C431.333 426.191 419.482 403.785 400.453 397.794C384.206 392.678 312.382 379.222 302.462 377.254C292.542 375.286 284.521 375.092 282.368 370.417C280.215 365.74 277.241 336.513 281.535 322.281C285.83 308.052 301.624 292.476 310.669 282.288C319.715 272.098 325.871 235.632 325.739 229.064C325.607 222.496 321.06 179.617 314.161 169.843C307.262 160.069 285.628 144.011 285.628 144.011C285.628 144.011 284.081 146.693 281.659 145.846C279.238 144.999 262.895 136.825 260.74 136.789C258.587 136.754 260.122 132.327 260.122 132.327C260.122 132.327 241.428 130.234 232.456 133.53C223.484 136.825 200.46 148.969 198.515 150.185C196.57 151.401 183.367 173.738 183.367 173.738Z" clip-rule="evenodd"></path><path fill="#E99A40" fill-rule="evenodd" d="M464.672 172.443C464.672 172.443 453.827 211.647 446.001 229.677 438.177 247.705 433.549 261.591 408.751 270.477 383.955 279.365 373.717 289.416 369.627 290.679 365.536 291.94 361.067 292.543 361.067 292.543 361.067 292.543 364.578 303.355 375.503 302.18 386.426 301.005 392.696 294.707 399.38 296.84 406.066 298.975 411.975 300.587 411.975 300.587 411.975 300.587 419.542 316.085 420.889 323.5 422.235 330.915 419.659 346.617 411.658 354.18 403.656 361.741 395.716 367.682 389.168 366.59 382.618 365.498 372.636 361.842 370.876 367.737 369.116 373.632 381.02 378.531 391.27 378.036L396.513 377.816C396.513 377.816 404.747 383.996 410.163 382.666 415.579 381.336 419.687 374.677 423.598 372.762 427.509 370.845 438.416 368.492 442.288 361.291 446.162 354.091 451.912 342.153 455.302 337.208 458.692 332.265 466.036 303.476 467.476 296.847 468.916 290.218 473.321 271.133 476.272 265.138 479.225 259.143 490.76 239.878 493.54 232.9 496.32 225.922 486.423 216.305 478.102 223.612 469.78 230.92 474.519 208.718 479.11 192.949 483.701 177.181 479.119 178.277 472.023 187.279 464.925 196.281 464.675 172.444 464.675 172.444L464.672 172.443zM4.16897 182.54C4.16897 182.54 15.672 206.136 21.081 214.779 26.49 223.422 31.31 232.606 30.524 237.422 29.739 242.239 21.43 276.326 25.956 286.595 30.483 296.864 45.632 302.022 45.632 302.022L69.731 292.653 72.227 298.484 53.583 305.705C53.583 305.705 61.396 314.387 75.899 309.213 90.402 304.039 97.873 294.726 97.873 294.726 97.873 294.726 102.328 292.205 103.527 287.434L85.145 293.031 82.574 287.448 109.121 277.644C109.121 277.644 115.742 264.154 113.815 260.407 111.887 256.66 106.991 258.171 106.991 258.171 106.991 258.171 109.004 253.369 105.543 249.782 105.543 249.782 105.919 241.673 102.183 240.572 98.447 239.473 93.752 244.168 93.752 244.168 93.752 244.168 82.113 232.278 75.9 226.505 69.687 220.734 62.688 204.327 59.948 183.003 57.209 161.68 53.682 158.752 53.682 158.752 53.682 158.752 46.152 169.264 38.224 172.44 32.179 174.862 25.978 169.569 22.266 172.44 15.81 177.434 26.763 191.064 20.686 192.403 16.09 193.416 4.16797 182.538 4.16797 182.538L4.16897 182.54z" clip-rule="evenodd"></path><path fill="#B5DCEA" d="M290.373 240.353C296.348 240.353 301.192 239.112 301.192 237.58 301.192 236.049 296.348 234.807 290.373 234.807 284.398 234.807 279.554 236.049 279.554 237.58 279.554 239.112 284.398 240.353 290.373 240.353zM377.167 327.435C387.964 327.435 396.717 322.969 396.717 317.46 396.717 311.951 387.964 307.485 377.167 307.485 366.37 307.485 357.617 311.951 357.617 317.46 357.617 322.969 366.37 327.435 377.167 327.435zM209.902 243.126C216.084 243.126 221.096 241.885 221.096 240.353 221.096 238.822 216.084 237.58 209.902 237.58 203.72 237.58 198.708 238.822 198.708 240.353 198.708 241.885 203.72 243.126 209.902 243.126z"></path><path fill="#000" fill-rule="evenodd" d="M164.999 108.833C164.999 108.833 164.032 105.379 163.555 101.546 163.355 99.937 163.24 98.259 163.335 96.754 163.435 95.156 163.665 94.169 164.324 93.538 164.771 93.109 165.381 92.863 166.135 92.623 167.218 92.279 168.55 92 170.161 91.609 173.126 90.888 175.95 89.3819 178.735 86.7589 181.471 84.1819 184.191 80.493 186.994 75.353 189.376 70.983 191.375 67.63 193.287 65.355 195.072 63.233 196.661 62.096 198.581 62.338 201.202 62.668 203.947 62.504 206.405 61.575 208.856 60.648 211.037 58.977 212.569 56.274 214.044 53.677 217.04 49.865 220.532 48.075 222.521 47.055 224.691 46.729 226.765 48.051 228.736 49.307 231.383 50.125 234.547 50.65 242.299 51.937 253.38 51.523 264.676 53.093 271.575 54.052 279.719 57.481 288.125 62.62 298.236 68.802 308.702 77.461 317.829 87.402 327.485 97.921 339.655 110.01 347.556 127.302 353.407 140.108 356.898 155.78 355.285 175.796 353.037 203.703 351.897 232.62 349.929 254.513 348.564 269.722 346.858 281.485 344.001 286.973 340.617 293.477 328.207 302.696 315.044 310.55 301.516 318.62 287.152 325.239 280.632 325.623 279.661 325.679 278.92 326.514 278.976 327.485 279.034 328.456 279.869 329.197 280.84 329.139 287.649 328.737 302.722 322.002 316.85 313.576 330.685 305.321 343.57 295.436 347.129 288.598 350.103 282.885 352.018 270.664 353.439 254.827 355.407 232.925 356.548 203.998 358.798 176.077 360.47 155.339 356.823 139.105 350.761 125.836 342.685 108.161 330.295 95.769 320.424 85.018 311.066 74.825 300.33 65.951 289.962 59.612 281.079 54.181 272.45 50.614 265.162 49.601 255.569 48.267 246.13 48.363 238.752 47.637 234.522 47.221 231.009 46.575 228.661 45.077 225.419 43.011 222.032 43.343 218.926 44.936 214.816 47.042 211.24 51.476 209.506 54.532 208.424 56.439 206.888 57.622 205.16 58.276 203.233 59.004 201.078 59.098 199.022 58.839 196.582 58.532 194.353 59.363 192.123 61.453 189.63 63.79 187.056 67.878 183.901 73.664 181.32 78.399 178.841 81.818 176.32 84.191 174.044 86.334 171.752 87.593 169.328 88.182 165.697 89.064 163.337 89.602 161.888 90.99 160.73 92.099 159.996 93.722 159.819 96.53 159.712 98.24 159.832 100.148 160.059 101.977 160.569 106.081 161.607 109.781 161.607 109.781 161.869 110.717 162.843 111.264 163.779 111.002 164.716 110.739 165.262 109.766 164.999 108.83V108.833zM218.864 327.359C215.582 326.97 212.233 326.459 208.826 325.802 205.577 325.177 202.276 324.417 198.934 323.508 182.849 319.134 171.137 314.12 162.589 306.247 153.811 298.162 148.416 287.067 144.92 270.679 144.717 269.728 143.781 269.12 142.83 269.322 141.879 269.525 141.272 270.462 141.475 271.413 145.159 288.681 150.953 300.319 160.203 308.837 169.107 317.036 181.258 322.351 198.01 326.907 201.44 327.841 204.826 328.618 208.159 329.261 211.653 329.934 215.086 330.457 218.451 330.857 219.416 330.971 220.294 330.279 220.408 329.314 220.523 328.349 219.83 327.471 218.865 327.358L218.864 327.359z" clip-rule="evenodd"></path><path fill="#000" fill-rule="evenodd" d="M143.714 264.389L142.445 255.936C138.838 228.351 135.767 209.345 135.383 193.566C135.151 184.026 135.907 175.683 138.152 167.319C140.046 160.266 143.432 151.935 147.16 143.854C155.189 126.451 164.818 110.207 164.818 110.207C165.313 109.371 165.036 108.289 164.2 107.793C163.364 107.297 162.282 107.574 161.787 108.41C161.787 108.41 152.067 124.808 143.961 142.378C140.144 150.651 136.688 159.185 134.749 166.405C132.418 175.088 131.619 183.747 131.86 193.652C132.247 209.525 135.322 228.645 138.951 256.394L140.241 264.986C140.406 265.944 141.317 266.589 142.276 266.424C143.234 266.26 143.879 265.348 143.714 264.389Z" clip-rule="evenodd"></path><path fill="#000" fill-rule="evenodd" d="M174.095 99.055C174.324 99.016 175.425 98.84 176.424 98.826C182.06 98.746 193.888 100.239 206.437 102.632C218.149 104.866 230.488 107.888 239.022 111.19C250.429 115.605 268.95 124.35 285.435 138.259C298.458 149.246 310.219 163.462 316.119 181.339C321.702 198.256 323.437 216.308 323.381 232.722C323.356 240.1 322.958 247.147 322.398 253.618C321.202 267.426 319.206 278.613 318.036 284.741C317.09 289.748 314.62 293.011 311.789 295.123C306.476 299.087 299.984 299.11 299.984 299.11C299.237 299.106 298.627 299.711 298.626 300.458C298.622 301.203 299.225 301.813 299.972 301.816L313.511 297.468C316.892 295.028 319.895 291.239 321.108 285.347C322.368 279.167 324.591 267.888 325.903 253.935C326.52 247.374 326.921 240.222 326.957 232.736C327.033 215.961 325.206 197.514 319.493 180.225C313.369 161.7 301.208 146.948 287.71 135.565C270.864 121.36 251.95 112.414 240.297 107.904C229.942 103.897 214.086 100.277 200.36 97.959C189.621 96.145 180.178 95.135 175.648 95.323C173.701 95.404 172.447 95.837 171.948 96.257C170.849 97.179 169.233 98.925 167.612 100.805C164.753 104.121 161.855 107.848 161.855 107.848C161.258 108.616 161.397 109.723 162.165 110.32C162.933 110.917 164.041 110.778 164.636 110.01C164.636 110.01 167.478 106.355 170.281 103.105C171.699 101.46 173.102 99.916 174.097 99.054L174.095 99.055Z" clip-rule="evenodd"></path><path fill="#000" fill-rule="evenodd" d="M254.019 114.158C254.019 114.158 243.186 115.862 229.943 122.553 223.222 125.949 215.877 130.631 209.014 137.023 198.364 146.942 189.635 157.248 183.148 169.645 177.294 180.83 173.263 193.719 171.306 209.568 170.416 216.772 169.666 223.725 169.07 230.293 168.388 237.809 167.907 244.818 167.655 251.12 167.616 252.066 168.353 252.866 169.299 252.905 170.247 252.944 171.047 252.207 171.084 251.26 171.343 245.011 171.827 238.059 172.511 230.609 173.112 224.077 173.866 217.162 174.759 209.997 176.674 194.626 180.585 182.127 186.27 171.281 192.579 159.241 201.069 149.24 211.415 139.603 218.013 133.459 225.072 128.963 231.532 125.699 244.209 119.294 254.57 117.639 254.57 117.639 255.53 117.487 256.187 116.584 256.034 115.623 255.882 114.663 254.979 114.005 254.019 114.158zM167.427 264.196C167.499 267.867 167.697 271.104 168.026 273.827 168.35 276.505 168.806 278.707 169.386 280.37 170.454 283.427 172.296 286.677 174.349 289.693 178.794 296.222 184.183 301.666 184.183 301.666 184.847 302.342 185.936 302.351 186.611 301.685 187.286 301.021 187.295 299.934 186.63 299.259 186.63 299.259 181.495 294.004 177.251 287.725 175.385 284.964 173.684 282.005 172.715 279.212 172.201 277.736 171.813 275.778 171.526 273.404 171.207 270.779 171.02 267.664 170.95 264.125 170.932 263.153 170.127 262.379 169.155 262.398 168.183 262.417 167.409 263.222 167.429 264.195L167.427 264.196z" clip-rule="evenodd"></path><path fill="#000" fill-rule="evenodd" d="M162.286 243.125C162.286 243.125 159.627 222.388 160.444 202.818C160.857 192.929 162.132 183.337 165.186 176.994C170.593 165.706 183.133 146.709 197.042 131.125C206.423 120.614 216.405 111.633 225.286 107.79C226.179 107.404 226.59 106.367 226.204 105.474C225.818 104.582 224.781 104.17 223.889 104.556C214.635 108.55 204.151 117.803 194.387 128.757C180.244 144.625 167.57 164.018 162.095 175.518C158.926 182.21 157.556 192.292 157.195 202.695C156.506 222.523 159.369 243.511 159.369 243.511C159.476 244.316 160.216 244.883 161.02 244.776C161.825 244.67 162.393 243.93 162.286 243.125Z" clip-rule="evenodd"></path><path fill="#000" fill-rule="evenodd" d="M199.277 152.521C199.277 152.521 208.107 146.773 218.154 141.812 222.544 139.644 227.169 137.625 231.381 136.316 236.215 134.814 241.261 134.072 245.762 133.734 251.336 133.316 256.08 133.52 258.573 133.696L258.111 136.223C257.952 137.1 258.472 137.957 259.323 138.221L269.324 141.331 282.206 148.469C282.648 148.713 283.171 148.759 283.649 148.595 284.126 148.432 284.512 148.074 284.711 147.61L285.467 145.851C287.97 147.893 292.753 151.868 297.818 156.484 299.744 158.24 301.722 160.076 303.625 161.944 308.359 166.596 312.661 171.393 314.645 175.332 314.971 176.004 315.78 176.287 316.453 175.962 317.126 175.637 317.408 174.828 317.084 174.155 315.132 169.932 310.828 164.668 305.98 159.617 304.098 157.657 302.139 155.724 300.202 153.907 292.801 146.969 285.86 141.573 285.86 141.573 285.423 141.231 284.852 141.11 284.315 141.248 283.776 141.385 283.334 141.765 283.114 142.275L282.208 144.388 270.884 138.143C270.778 138.085 270.667 138.037 270.551 138.001L261.86 135.316 262.387 132.424C262.473 131.945 262.359 131.451 262.07 131.06 261.779 130.669 261.341 130.415 260.858 130.359 260.858 130.359 254.13 129.572 245.501 130.22 240.753 130.576 235.434 131.367 230.338 132.95 225.962 134.309 221.156 136.4 216.597 138.652 206.356 143.709 197.357 149.567 197.357 149.567 196.541 150.097 196.311 151.19 196.841 152.005 197.371 152.82 198.464 153.051 199.279 152.52L199.277 152.521zM160.356 256.548C159.847 257.01 159.653 257.725 159.859 258.382L161.438 263.399C161.62 263.979 162.088 264.423 162.676 264.574 162.676 264.574 167.875 265.923 173.638 266.211 177.665 266.41 181.945 266.059 185.054 264.522 193.295 260.447 193.398 253.212 193.398 253.212 193.412 252.729 193.229 252.262 192.891 251.921L190.68 249.687 193.088 246.199C193.44 245.686 193.498 245.027 193.24 244.464 192.979 243.898 192.442 243.513 191.825 243.446L189.123 243.159 189.118 240.189C189.116 239.442 188.644 238.776 187.939 238.529 187.233 238.282 186.449 238.506 185.982 239.089 183.038 242.76 178.66 244.538 173.269 247.23 167.434 250.144 160.357 256.55 160.357 256.55L160.356 256.548zM163.564 258.415C165.519 256.717 170.536 252.531 174.843 250.38 179.078 248.266 182.699 246.592 185.602 244.337V244.744C185.604 245.644 186.284 246.398 187.177 246.493L188.505 246.634 186.951 248.885C186.47 249.583 186.553 250.522 187.148 251.124L189.778 253.782C189.477 255.297 188.266 259 183.492 261.361 180.858 262.665 177.22 262.858 173.811 262.689 169.845 262.492 166.165 261.759 164.497 261.385L163.562 258.413 163.564 258.415zM323.53 232.761C323.53 232.761 322.975 236.515 321.913 242.133 320.8 248.021 319.149 255.957 316.792 263.726 314.648 270.794 311.953 277.732 308.626 282.82 306.716 285.75 304.075 288.896 301.135 292.048 299.519 293.78 297.814 295.512 296.075 297.201 293.406 299.796 290.675 302.303 288.02 304.489 287.43 304.947 287.322 305.796 287.78 306.386 288.236 306.976 289.087 307.084 289.677 306.627 293.599 303.75 297.786 300.348 301.539 296.703 305.598 292.759 309.137 288.544 311.609 284.767 315.088 279.427 317.932 272.162 320.169 264.748 322.56 256.838 324.298 248.769 325.364 242.763 326.382 237.029 326.807 233.179 326.807 233.179 326.923 232.275 326.284 231.445 325.378 231.329 324.472 231.213 323.644 231.852 323.528 232.758L323.53 232.761z" clip-rule="evenodd"></path><path fill="#000" fill-rule="evenodd" d="M207.131 312.877C207.478 313.212 210.709 316.342 213.403 319.353 214.952 321.083 216.349 322.739 216.726 323.717 217.011 324.455 217.307 327.695 217.628 332.163 218.046 337.973 218.412 345.767 218.452 353.052 218.5 361.561 218.195 369.359 216.921 372.186 216.489 373.144 215.593 373.981 214.377 374.781 212.11 376.277 208.805 377.536 204.8 378.646 195.391 381.255 182.243 382.952 169.19 384.289 157.125 385.517 144.401 387.405 133.72 390.078 123.82 392.555 115.656 395.751 111.207 399.595 108.042 402.371 104.576 407.204 101.428 412.408 95.463 422.27 90.555 433.415 90.555 433.415 90.245 434.095 90.546 434.897 91.226 435.207 91.905 435.517 92.709 435.216 93.018 434.538 93.018 434.538 98.125 423.702 104.189 414.118 107.232 409.31 110.5 404.807 113.505 402.262 117.667 398.684 125.347 395.855 134.588 393.549 145.12 390.921 157.658 389.034 169.55 387.809 182.819 386.449 196.179 384.701 205.745 382.052 210.174 380.824 213.812 379.388 216.322 377.736 218.195 376.503 219.481 375.118 220.145 373.64 221.517 370.592 222.041 362.205 221.982 353.033 221.934 345.665 221.573 337.782 221.126 331.906 220.745 326.904 220.256 323.295 219.93 322.47 219.546 321.496 218.415 319.933 216.961 318.258 213.878 314.705 209.382 310.457 209.382 310.457L209.354 310.431 209.326 310.406C209.326 310.406 207.309 308.553 204.404 305.693 202.336 303.658 199.804 301.13 197.285 298.338 194.785 295.57 192.28 292.556 190.206 289.565 188.162 286.598 186.3 283.253 184.655 280.018 183.591 277.923 182.645 275.862 181.764 273.989 179.292 268.736 177.64 264.828 177.64 264.828 177.395 264.123 176.622 263.75 175.917 263.996 175.212 264.241 174.839 265.014 175.085 265.719 175.085 265.719 176.049 269.126 177.914 273.821 178.561 275.449 179.334 277.221 180.199 279.062 182.155 283.214 184.61 287.691 187.308 291.57 190.01 295.477 193.412 299.426 196.636 302.847 198.449 304.773 200.196 306.541 201.745 308.021 204.692 310.838 206.873 312.662 207.131 312.877zM289.564 302.83C289.564 302.83 285.057 306.662 281.531 315.592 280.028 319.399 278.702 324.15 277.99 329.947 276.929 338.828 277.116 348.052 277.868 355.654 278.437 361.395 279.332 366.219 280.252 369.299 280.775 371.052 281.346 372.299 281.846 372.962 282.133 373.343 282.882 373.901 284.168 374.38 286.812 375.37 292.483 376.67 299.791 378.12 320.354 382.2 354.094 387.556 368.773 390.785 379.898 393.221 390.178 395.654 398.613 398.637 406.062 401.273 412.055 404.303 415.765 408.367 418.628 411.484 421.454 414.81 423.909 417.806 428.382 423.264 431.627 427.624 431.627 427.624 432.066 428.228 432.913 428.362 433.517 427.922 434.121 427.483 434.253 426.636 433.815 426.032 433.815 426.032 430.63 421.557 426.227 415.946 423.801 412.856 421.005 409.424 418.169 406.204 414.217 401.745 407.845 398.227 399.803 395.311 391.267 392.217 380.824 389.781 369.54 387.295 354.844 384.071 321.061 378.737 300.477 374.656 294.649 373.5 289.891 372.449 286.956 371.577 285.917 371.269 284.833 370.805 284.572 370.693 284.19 370.098 283.82 368.995 283.422 367.52 282.413 363.792 281.482 357.927 281.042 351.152 280.621 344.697 280.647 337.419 281.488 330.365 282.119 324.907 283.333 320.429 284.719 316.838 287.813 308.829 291.734 305.325 291.734 305.325 292.421 304.726 292.495 303.681 291.896 302.992 291.297 302.303 290.252 302.231 289.563 302.83H289.564z" clip-rule="evenodd"></path><path fill="#000" fill-rule="evenodd" d="M73.8389 442.251C73.8389 442.251 105.872 434.336 137.84 427.495 153.401 424.165 168.941 421.059 180.77 419.342 202.422 416.189 270.447 413.793 332.335 416.171 373.517 417.753 411.979 421.423 432.142 428.48 440.741 431.468 448.996 435.83 456.061 440.192 468.802 448.063 477.672 455.952 477.672 455.952 478.333 456.544 479.349 456.489 479.941 455.827 480.533 455.166 480.477 454.15 479.816 453.558 479.816 453.558 470.808 445.44 457.838 437.333 450.597 432.809 442.125 428.294 433.301 425.177 412.932 418.031 374.082 414.217 332.472 412.605 270.32 410.197 202 412.649 180.257 415.817 168.364 417.554 152.727 420.63 137.094 424.048 105.101 431.042 73.1029 439.347 73.1029 439.347 72.3009 439.55 71.8149 440.365 72.0179 441.167 72.2209 441.969 73.0369 442.455 73.8379 442.252L73.8389 442.251zM163.022 257.331C162.769 256.771 162.179 256.408 161.526 256.413 161.526 256.413 159.986 256.269 158.445 256.42 157.619 256.503 156.807 256.709 156.184 256.961 155.096 257.401 154.481 258.154 154.281 258.895 154.084 259.635 154.144 260.563 154.448 261.545 154.877 262.926 155.802 264.478 156.475 265.493 156.995 266.272 157.942 266.751 159.233 266.649 161.237 266.49 164.593 264.625 164.593 264.625 165.372 264.179 165.696 263.223 165.349 262.396 165.349 262.396 164.956 261.42 164.466 260.333 163.823 258.906 163.021 257.289 163.021 257.289V257.331H163.022zM159.156 263.039C158.831 262.528 158.476 261.922 158.191 261.307 158.031 260.962 157.893 260.616 157.806 260.287 157.78 260.19 157.749 260.099 157.732 260.012 158.116 259.926 158.734 259.894 159.122 259.818 159.586 259.728 160.043 259.649 160.433 259.584 160.652 260.19 160.939 260.974 161.221 261.696 161.295 261.885 161.369 262.071 161.44 262.247 161.021 262.441 160.548 262.642 160.079 262.804 159.797 262.903 159.41 262.989 159.157 263.038L159.156 263.039zM157.662 260.028C157.603 260.222 157.517 260.421 157.422 260.298 157.322 260.169 157.44 260.087 157.662 260.028zM267.69 209.714C267.69 209.714 270.107 208.416 273.345 207.218 274.55 206.772 275.868 206.334 277.226 205.995 279.338 205.468 281.549 205.163 283.529 205.537 285.518 205.893 287.563 206.673 289.482 207.526 290.726 208.077 291.917 208.661 292.995 209.223 295.974 210.779 298.099 212.169 298.099 212.169 298.689 212.618 299.533 212.505 299.982 211.915 300.433 211.325 300.318 210.481 299.728 210.032 299.728 210.032 296.694 207.368 292.554 205.089 290.003 203.685 287.019 202.503 284.184 201.96 281.709 201.521 278.941 201.83 276.321 202.552 274.824 202.964 273.372 203.495 272.066 204.071 268.641 205.584 266.187 207.291 266.187 207.291 265.518 207.705 265.311 208.584 265.725 209.254 266.139 209.922 267.018 210.13 267.688 209.716L267.69 209.714zM196.167 215.137C196.167 215.137 198.438 212.702 202.492 210.861 204.514 209.941 206.981 209.156 209.893 208.944 212.192 208.775 214.747 208.993 217.595 209.661 219.917 210.205 222.438 210.984 225.137 212.281 225.789 212.635 226.605 212.392 226.959 211.74 227.313 211.088 227.072 210.272 226.42 209.918 223.626 208.214 220.997 206.995 218.498 206.255 215.262 205.3 212.279 205.119 209.628 205.314 206.205 205.564 203.289 206.503 200.964 207.696 196.292 210.09 193.952 213.342 193.952 213.342 193.457 213.955 193.552 214.852 194.163 215.347 194.774 215.842 195.675 215.747 196.168 215.136L196.167 215.137zM225 280.865C225 280.865 228.004 283.044 234.196 284.517 236.814 285.141 240.018 285.616 243.801 285.74 248.588 285.899 254.333 285.562 260.967 284.047 264.379 283.267 268.002 282.111 271.883 280.672 272.588 280.439 272.97 279.678 272.737 278.974 272.504 278.269 271.743 277.887 271.039 278.12 267.188 279.239 263.587 279.991 260.254 280.616 253.889 281.809 248.465 282.251 243.907 282.133 240.378 282.04 237.387 281.654 234.92 281.171 229.374 280.088 226.557 278.479 226.557 278.479 225.898 278.049 225.014 278.234 224.584 278.893 224.154 279.552 224.341 280.436 225 280.866V280.865zM247.203 224.213C247.203 224.213 246.611 227.928 245.639 232.729 245.107 235.35 244.475 238.296 243.717 241.131 242.623 245.225 241.33 249.098 239.674 251.236 237.569 254 237.149 256.186 237.632 257.638 238.009 258.769 238.86 259.689 240.276 260.208 241.278 260.574 242.616 260.768 244.245 260.701 246.414 260.615 249.157 260.116 252.324 259.218 253.045 259.042 253.488 258.316 253.312 257.594 253.138 256.873 252.41 256.431 251.689 256.606 249.233 257.101 247.064 257.36 245.257 257.409 243.678 257.453 242.422 257.319 241.552 256.953 241.321 256.856 241.131 256.756 241.041 256.585 240.962 256.435 241.016 256.254 241.069 256.035 241.249 255.314 241.754 254.471 242.549 253.454 244.416 251.026 246.021 246.691 247.2 242.038 247.942 239.105 248.542 236.053 248.972 233.332 249.756 228.383 250.034 224.539 250.034 224.539 250.124 223.759 249.564 223.05 248.781 222.96 247.999 222.87 247.292 223.432 247.201 224.213H247.203zM192.669 196.011C192.669 196.011 195.305 193.589 199.936 191.631 202.216 190.669 204.971 189.802 208.188 189.438 210.764 189.146 213.619 189.205 216.764 189.676 219.393 190.067 222.225 190.687 225.248 191.827 225.928 192.119 226.719 191.804 227.013 191.122 227.305 190.442 226.99 189.649 226.308 189.357 223.163 187.831 220.193 186.778 217.374 186.206 213.884 185.498 210.66 185.494 207.776 185.822 204.147 186.235 201.022 187.228 198.497 188.425 193.31 190.884 190.606 194.043 190.606 194.043 190.062 194.612 190.083 195.514 190.652 196.058 191.221 196.601 192.125 196.579 192.667 196.01L192.669 196.011zM264.702 192.483C264.702 192.483 268.023 190.92 273.095 190.15 275.621 189.766 278.581 189.56 281.819 189.905 284.479 190.187 287.307 190.865 290.266 192.009 292.798 192.987 295.444 194.25 298.097 196.096 298.687 196.545 299.531 196.432 299.982 195.844 300.431 195.254 300.318 194.41 299.73 193.959 297.028 191.695 294.321 189.963 291.619 188.757 288.379 187.31 285.178 186.601 282.203 186.286 278.598 185.904 275.286 186.141 272.494 186.687 266.864 187.788 263.329 189.982 263.329 189.982 262.638 190.361 262.386 191.229 262.765 191.918 263.146 192.609 264.012 192.861 264.701 192.482L264.702 192.483z" clip-rule="evenodd"></path><path fill="#000" fill-rule="evenodd" d="M155.43 257.73C155.43 257.73 148.028 260.418 138.005 264.259 130.198 267.25 120.808 270.957 112.02 274.438 107.978 276.039 104.063 277.591 100.506 279.05 90.5739 283.127 83.349 286.259 83.349 286.259 82.659 286.532 82.32 287.313 82.592 288.003 82.864 288.694 83.646 289.032 84.336 288.761 84.336 288.761 91.754 286.117 101.792 282.311 105.388 280.947 109.307 279.408 113.353 277.817 122.151 274.36 131.541 270.656 139.288 267.511 149.233 263.471 156.476 260.381 156.476 260.381 157.208 260.092 157.568 259.264 157.279 258.531 156.99 257.8 156.161 257.439 155.429 257.729L155.43 257.73zM68.925 291.863C68.925 291.863 58.342 295.809 47.543 299.963 38.745 303.349 29.813 306.892 26.248 308.285 25.368 308.63 24.682 309.273 24.267 310.059 23.852 310.845 23.712 311.777 23.924 312.698L24.251 314.113C24.38 314.668 24.626 315.182 24.966 315.625 25.306 316.067 25.74 316.437 26.244 316.703 26.748 316.969 27.298 317.121 27.855 317.152 28.412 317.185 28.975 317.099 29.507 316.891 33.531 315.312 42.318 311.937 50.838 308.525 61.653 304.195 72.052 299.857 72.052 299.857 72.743 299.589 73.087 298.809 72.818 298.118 72.549 297.426 71.77 297.082 71.078 297.352 71.078 297.352 60.478 301.171 49.576 305.276 40.987 308.511 32.225 311.951 28.191 313.502L27.946 313.488 27.797 313.294 27.47 311.879C27.459 311.835 27.464 311.789 27.484 311.75 27.504 311.711 27.537 311.678 27.58 311.66 31.136 310.244 40.081 306.732 48.82 303.197 59.547 298.86 69.972 294.515 69.972 294.515 70.704 294.226 71.064 293.396 70.775 292.665 70.486 291.932 69.657 291.574 68.925 291.863zM85.7839 294.612C85.7839 294.612 93.1889 291.966 103.217 288.185 111.028 285.239 120.423 281.589 129.216 278.159 133.26 276.582 137.178 275.053 140.737 273.616 150.675 269.599 157.905 266.509 157.905 266.509 158.596 266.239 158.94 265.461 158.671 264.768 158.402 264.077 157.623 263.734 156.932 264.002 156.932 264.002 149.511 266.604 139.468 270.348 135.871 271.69 131.949 273.207 127.901 274.773 119.099 278.178 109.703 281.827 101.952 284.926 92.0009 288.906 84.7529 291.954 84.7529 291.954 84.0189 292.239 83.6549 293.066 83.9399 293.799 84.2249 294.534 85.0519 294.897 85.7849 294.613L85.7839 294.612zM229.228 323.878C229.228 323.878 233.55 325.862 239.989 326.952 243.275 327.509 247.113 327.796 251.174 327.532 254.759 327.299 258.538 326.66 262.236 325.259 265.597 323.985 268.871 322.083 271.95 319.502 272.537 319.049 272.644 318.204 272.19 317.617 271.735 317.03 270.89 316.923 270.305 317.377 267.321 319.509 264.178 320.911 261.061 321.938 257.633 323.067 254.211 323.686 250.936 323.901 247.155 324.148 243.59 323.885 240.512 323.478 234.462 322.678 230.298 321.235 230.298 321.235 229.569 320.939 228.737 321.291 228.443 322.022 228.147 322.751 228.501 323.583 229.229 323.877L229.228 323.878z" clip-rule="evenodd"></path><path fill="#000" fill-rule="evenodd" d="M0.0559517 175.915C0.271952 176.686 0.535952 177.439 0.827952 178.18C1.47095 179.814 2.25695 181.391 2.93795 183.015C3.65595 184.725 4.18595 186.512 4.82095 188.255C5.11195 189.051 5.42395 189.841 5.77895 190.61C10.004 199.738 15.726 208.072 20.421 216.965C21.569 219.141 22.658 221.346 23.641 223.61C24.759 226.168 26.635 228.68 27.893 231.303C28.614 232.808 29.126 234.347 28.976 235.984C28.168 244.861 24.529 259.889 23.886 272.328C23.551 278.804 24.056 284.607 25.994 288.643C27.333 291.432 29.445 293.629 31.913 295.479C35.281 298.005 39.3279 299.873 42.6769 301.932C47.5589 304.925 53.986 309.308 60.609 311.713C65.396 313.45 70.286 314.157 74.804 312.823C75.931 312.488 77.094 311.984 78.255 311.378C80.668 310.124 83.087 308.439 85.184 307.204C87.642 305.752 90.374 304.234 92.718 302.342C94.388 300.994 95.868 299.463 96.951 297.656C97.68 296.439 98.148 295.146 98.456 293.805C98.883 291.948 99.005 290.005 99.163 288.093C99.23 287.355 98.685 286.699 97.947 286.633C97.208 286.566 96.554 287.11 96.487 287.849C96.311 289.627 96.185 291.436 95.756 293.159C95.495 294.207 95.114 295.222 94.521 296.166C93.583 297.665 92.302 298.913 90.878 300.015C88.615 301.771 85.984 303.16 83.62 304.497C81.828 305.513 79.798 306.856 77.741 307.976C76.447 308.679 75.145 309.292 73.891 309.643C70.026 310.726 65.884 309.957 61.819 308.438C55.445 306.056 49.268 301.784 44.568 298.87C41.313 296.856 37.372 295.04 34.096 292.575C32.1 291.074 30.355 289.328 29.272 287.071C27.546 283.472 27.228 278.285 27.521 272.512C28.151 260.122 31.745 245.147 32.533 236.303C32.688 234.55 32.358 232.869 31.734 231.236C30.543 228.114 28.185 225.184 26.864 222.191C25.825 219.855 24.682 217.574 23.469 215.333C18.705 206.533 12.886 198.324 8.57095 189.293C8.24095 188.605 7.94995 187.9 7.67795 187.186C6.99995 185.409 6.42495 183.587 5.66295 181.845C5.06195 180.471 4.38595 179.131 3.78595 177.76C3.40995 176.9 3.06395 176.028 2.79595 175.123C2.57795 174.367 1.78695 173.93 1.03095 174.148C0.274952 174.366 -0.162048 175.157 0.0559517 175.913V175.915Z" clip-rule="evenodd"></path><path fill="#000" fill-rule="evenodd" d="M99.9319 280.576C99.7379 277.149 97.793 275.402 95.391 274.753 93.759 274.313 91.832 274.501 90.028 275.086 88.298 275.646 86.6839 276.608 85.5179 277.734 84.6209 278.645 83.879 279.727 83.321 280.933 82.603 282.487 82.163 284.197 81.58 285.704 81.26 286.373 81.5439 287.177 82.2139 287.496 82.8829 287.815 83.6859 287.531 84.0059 286.862 84.7869 285.504 85.525 283.966 86.372 282.535 86.851 281.725 87.36 280.949 88.027 280.338 89.359 279.047 91.556 278.145 93.514 278.094 95.201 278.05 96.742 278.721 97.097 280.899 97.186 281.679 97.893 282.243 98.675 282.153 99.457 282.065 100.021 281.357 99.9319 280.576zM474.141 150.98C471.097 156.838 468.1 163.062 465.336 169.386 462.565 175.722 460.028 182.158 457.909 188.425 454.396 198.847 449.837 214.731 444.256 228.971 440.405 238.796 436.083 247.839 431.219 253.64 428.435 256.964 424.577 259.716 420.229 262.124 410.305 267.621 397.86 271.315 388.972 275.363 387.124 276.207 385.376 277.2 383.68 278.275 379.887 280.682 376.365 283.509 372.525 285.863 371.859 286.272 371.167 286.633 370.457 286.964 367.358 288.414 363.981 289.356 360.984 291.004 360.373 291.34 360.006 291.998 360.043 292.695 360.166 295.003 360.813 296.997 361.946 298.674 363.061 300.323 364.654 301.674 366.748 302.682 370.182 304.336 373.254 304.724 376.152 304.421 379.668 304.055 382.926 302.622 386.284 301.181 389.142 299.955 392.082 298.723 395.41 298.382 397.549 298.16 399.517 298.618 401.447 299.185 403.718 299.851 405.945 300.67 408.272 301.03 408.989 301.141 409.715 301.21 410.455 301.224 410.968 303.815 411.725 306.287 412.615 308.704 414.174 312.939 416.142 317.004 417.853 321.286 420.372 327.577 420.016 333.586 417.999 339.169 415.918 344.921 412.104 350.226 407.786 354.949 405.732 357.199 402.954 359.528 399.895 361.356 396.925 363.132 393.695 364.448 390.62 364.694 388.939 364.83 385.93 363.965 382.768 363.411 379.569 362.851 376.236 362.592 373.709 363.478 371.116 364.387 369.188 366.357 368.868 370.303 368.739 371.901 369.404 373.273 370.744 374.399 371.905 375.373 373.633 376.173 375.682 376.788 382.19 378.738 392.137 378.974 394.885 379.335 395.62 379.434 396.298 378.919 396.398 378.185 396.498 377.45 395.982 376.772 395.248 376.672 392.905 376.341 385.21 376.077 379.058 374.706 376.803 374.204 374.765 373.561 373.345 372.678 372.411 372.097 371.738 371.461 371.821 370.559 371.964 369.016 372.431 367.93 373.195 367.215 374.074 366.394 375.302 366.088 376.66 365.994 379.188 365.82 382.146 366.441 384.755 366.996 387.248 367.525 389.462 367.979 390.861 367.879 394.397 367.625 398.139 366.193 401.571 364.183 404.938 362.208 408.001 359.682 410.272 357.237 415.918 351.14 420.73 344.086 422.47 336.396 423.65 331.183 423.439 325.678 421.172 319.963 419.481 315.708 417.531 311.672 415.991 307.465 415.008 304.777 414.194 302.019 413.743 299.081 413.595 298.131 412.73 297.462 411.775 297.561 409.652 297.776 407.688 297.297 405.743 296.717 403.486 296.042 401.254 295.228 398.899 294.876 397.652 294.691 396.371 294.631 395.039 294.769 391.329 295.15 388.038 296.476 384.853 297.843 381.839 299.136 378.934 300.477 375.777 300.806 373.48 301.046 371.05 300.718 368.328 299.407 366.868 298.702 365.738 297.786 364.961 296.638 364.373 295.766 363.99 294.765 363.802 293.643 366.452 292.357 369.334 291.506 372.001 290.255 372.833 289.866 373.643 289.441 374.425 288.96 378.28 286.592 381.815 283.752 385.623 281.333 387.179 280.345 388.782 279.429 390.475 278.653 399.432 274.559 411.97 270.806 421.966 265.25 426.719 262.609 430.905 259.556 433.944 255.915 438.986 249.86 443.517 240.466 447.478 230.222 453.013 215.899 457.471 199.917 460.932 189.431 462.974 183.229 465.426 176.858 468.108 170.582 470.796 164.297 473.712 158.108 476.679 152.282 477.038 151.582 476.764 150.722 476.062 150.362 475.363 150.002 474.503 150.278 474.143 150.978L474.141 150.98z" clip-rule="evenodd"></path><path fill="#000" fill-rule="evenodd" d="M393.238 379.198C394.387 379.128 395.671 379.697 397.098 380.364C399.173 381.336 401.465 382.596 403.886 383.336C405.764 383.91 407.718 384.162 409.707 383.849C411.913 383.49 413.733 382.662 415.348 381.571C418.757 379.268 421.109 375.638 424.738 373.39C427.284 371.804 430.275 371.663 433.053 370.698C434.441 370.217 435.784 369.565 437.038 368.579C440.424 365.899 442.411 363.683 443.807 361.514C444.91 359.802 445.652 358.119 446.39 356.239C447.218 354.125 448.046 351.747 449.57 348.752C450.366 347.168 451.247 345.627 452.163 344.101C453.564 341.767 455.042 339.476 456.456 337.172C456.858 336.548 456.678 335.717 456.056 335.313C455.432 334.911 454.599 335.089 454.197 335.713C452.67 337.961 451.073 340.184 449.567 342.466C448.542 344.018 447.564 345.597 446.667 347.217C445.302 349.703 444.405 351.776 443.635 353.638C442.737 355.81 442.027 357.671 440.792 359.557C439.55 361.454 437.778 363.378 434.79 365.721C433.869 366.443 432.877 366.907 431.858 367.261C428.826 368.318 425.599 368.584 422.824 370.321C420.898 371.53 419.299 373.083 417.743 374.662C416.341 376.087 414.975 377.53 413.351 378.658C412.142 379.498 410.786 380.166 409.123 380.469C407.654 380.746 406.202 380.564 404.793 380.184C402.501 379.562 400.315 378.44 398.333 377.598C396.367 376.761 394.563 376.201 393.011 376.354C392.225 376.417 391.64 377.104 391.704 377.888C391.766 378.674 392.453 379.26 393.238 379.198Z" clip-rule="evenodd"></path><path fill="#000" fill-rule="evenodd" d="M469.593 274.914C469.186 276.348 468.939 277.786 468.772 279.23 468.406 282.408 468.46 285.609 467.94 288.817 467.706 290.364 467.345 291.886 466.939 293.397 465.952 297.093 464.665 300.729 463.835 304.445 463.065 307.951 462.35 311.478 461.561 314.971 460.777 318.431 459.894 321.849 458.781 325.18 457.322 329.537 455.478 333.753 452.7 337.646 452.254 338.238 452.372 339.082 452.964 339.528 453.556 339.975 454.4 339.857 454.847 339.266 458.025 335.276 460.317 330.924 462.033 326.333 463.31 322.919 464.256 319.371 465.098 315.786 465.919 312.289 466.608 308.743 467.379 305.223 468.172 301.548 469.446 297.954 470.369 294.29 470.785 292.643 471.127 290.983 471.347 289.301 471.745 286.015 471.578 282.763 471.809 279.515 471.901 278.22 472.052 276.925 472.353 275.63 472.55 274.867 472.092 274.088 471.329 273.891 470.568 273.695 469.789 274.154 469.592 274.915L469.593 274.914zM442.799 328.618C441.361 334.012 438.96 339.636 435.891 345.085 433.004 350.215 429.505 355.18 425.46 359.549 421.364 363.973 416.715 367.76 411.678 370.574 406.513 373.46 400.942 375.354 395.007 375.593 394.265 375.605 393.673 376.218 393.686 376.96 393.7 377.702 394.311 378.294 395.053 378.28 401.494 378.313 407.676 376.654 413.356 373.671 418.801 370.813 423.766 366.739 428.132 362.021 432.374 357.437 436.06 352.221 438.974 346.777 442.059 341.011 444.27 334.995 445.57 329.304 445.759 328.539 445.292 327.766 444.527 327.578 443.764 327.389 442.991 327.855 442.8 328.619L442.799 328.618z" clip-rule="evenodd"></path><path fill="#000" fill-rule="evenodd" d="M497.43 224.976C494.227 229.104 491.128 233.214 488.273 237.435 485.35 241.755 482.669 246.171 480.204 250.688 477.723 255.239 475.444 259.891 473.524 264.736 471.637 269.5 470.115 274.445 468.838 279.568 468.639 280.283 469.058 281.023 469.773 281.222 470.486 281.421 471.228 281.002 471.427 280.288 472.942 275.364 474.792 270.673 476.777 266.083 478.796 261.416 480.979 256.869 483.399 252.43 485.814 247.997 488.45 243.674 491.207 239.367 493.922 235.125 496.732 230.886 499.718 226.676 500.188 226.044 500.056 225.15 499.424 224.68 498.792 224.211 497.898 224.344 497.43 224.976zM76.3839 112.639C77.3119 112.323 78.2129 112.125 79.1029 111.983 81.4309 111.611 83.6929 111.629 86.1649 111.259 92.3349 110.286 98.445 109.898 104.549 109.763 113.804 109.558 123.049 109.982 132.466 110.321 136.174 110.43 139.87 110.202 143.557 109.859 147.158 109.523 150.748 109.084 154.347 108.868 157.375 108.686 160.405 108.639 163.45 108.939 164.187 109.028 164.856 108.503 164.946 107.766 165.036 107.029 164.509 106.359 163.773 106.27 160.591 105.812 157.408 105.701 154.221 105.766 150.574 105.841 146.925 106.131 143.274 106.386 139.718 106.634 136.161 106.857 132.594 106.71 123.101 106.381 113.779 105.887 104.452 106.191 98.195 106.394 91.9409 106.972 85.6349 108.092 83.1719 108.55 80.9049 108.613 78.5859 109.069 77.5459 109.273 76.4959 109.547 75.4179 109.958 74.6779 110.225 74.2939 111.043 74.5609 111.783 74.8279 112.523 75.6459 112.907 76.3859 112.64L76.3839 112.639z" clip-rule="evenodd"></path><path fill="#000" fill-rule="evenodd" d="M73.476 112.078C73.665 114.156 73.596 116.252 73.409 118.359 72.959 123.42 71.806 128.534 71.45 133.561 70.811 143.967 69.326 154.271 68.359 164.63 68.115 167.244 67.911 169.861 67.753 172.483 67.626 174.614 67.648 176.736 67.749 178.854 67.977 183.618 68.593 188.358 68.511 193.138 68.476 198.221 68.281 203.294 68.519 208.347 68.679 211.768 69.036 215.177 69.743 218.574 69.881 219.302 70.584 219.783 71.313 219.643 72.042 219.506 72.522 218.803 72.384 218.073 71.828 214.801 71.622 211.53 71.577 208.253 71.507 203.25 71.828 198.238 72.008 193.213 72.149 187.683 71.399 182.198 71.308 176.678 71.286 175.355 71.3 174.03 71.381 172.702 71.995 162.303 73.445 151.992 74.338 141.616 74.563 139.002 74.743 136.383 74.878 133.758 75.105 128.748 76.137 123.632 76.447 118.585 76.587 116.296 76.584 114.021 76.313 111.775 76.23 110.992 75.527 110.424 74.745 110.507 73.962 110.59 73.394 111.293 73.477 112.075L73.476 112.078zM341.061 110.983C344.771 111.895 348.603 112.303 352.488 112.417 361.226 112.675 370.241 111.427 378.727 111.249 384.814 111.11 390.805 111.296 396.769 111.644 405.468 112.152 414.106 113.015 422.874 113.844 424.342 117.061 425.15 120.438 425.592 123.897 426.772 133.11 425.432 142.887 426.372 151.933 427.408 161.791 428.269 171.712 428.944 181.645 429.62 191.573 430.11 201.512 430.327 211.422 430.602 221.998 431.944 230.086 432.096 238.623 432.191 244.07 431.797 249.704 430.285 256.32 430.112 257.041 430.56 257.766 431.282 257.937 432.003 258.11 432.728 257.662 432.899 256.94 434.587 250.099 435.103 244.254 435.092 238.593 435.078 230.052 433.846 221.941 433.73 211.358 433.577 201.392 433.175 191.392 432.534 181.407 431.895 171.425 431.017 161.459 429.988 151.555 429.038 142.482 430.37 132.675 429.178 123.435 428.637 119.255 427.596 115.189 425.665 111.341 425.387 110.785 424.841 110.412 424.22 110.355 415.055 109.527 406.043 108.62 396.961 108.147 390.902 107.831 384.814 107.713 378.636 107.91 371.383 108.154 363.753 109.185 356.234 109.386 351.301 109.518 346.414 109.294 341.721 108.209 340.955 108.026 340.187 108.5 340.003 109.265 339.82 110.03 340.294 110.8 341.06 110.983H341.061zM280.908 352.048C285.219 352.284 289.523 352.473 293.828 352.573 296.7 352.64 299.571 352.673 302.443 352.675 313.182 352.684 323.915 352.367 334.681 352.191 339.355 352.02 344.004 352.214 348.664 352.076 350.697 352.016 352.728 351.888 354.765 351.657 355.503 351.594 356.053 350.942 355.988 350.202 355.925 349.464 355.273 348.916 354.533 348.979 352.563 349.097 350.603 349.102 348.645 349.071 343.969 348.993 339.315 348.646 334.622 348.632 323.872 348.812 313.152 349.021 302.426 349.127 299.57 349.155 296.714 349.183 293.857 349.205 289.576 349.235 285.297 349.261 281.007 349.2 280.22 349.172 279.559 349.788 279.532 350.576 279.506 351.362 280.122 352.022 280.908 352.049V352.048zM89.818 354.239C89.026 353.599 88.317 352.211 87.558 350.4 86.246 347.271 85.008 342.948 83.887 338.295 81.319 327.637 79.397 315.266 78.916 311.215 78.83 310.433 78.125 309.867 77.343 309.954 76.561 310.04 75.996 310.745 76.082 311.527 76.56 316.233 78.729 332.004 81.749 343.594 82.728 347.352 83.809 350.673 84.929 353.077 85.841 355.033 86.844 356.423 87.803 357.14 88.108 357.367 88.6939 357.635 89.5599 357.824 91.4909 358.245 95.469 358.532 100.17 358.7 110.534 359.066 124.491 358.901 127.16 358.716 132.963 358.309 138.777 357.967 144.594 357.692 150.409 357.417 156.227 357.209 162.04 357.089 170.096 356.895 178.054 357.126 186.038 356.996 191.39 356.91 196.755 356.656 202.163 356.057 203.246 355.934 204.311 355.736 205.366 355.5 207.684 354.982 209.955 354.277 212.304 353.9 214.103 353.613 215.912 353.78 217.716 353.616 218.222 353.57 218.729 353.505 219.236 353.401 219.964 353.255 220.434 352.545 220.288 351.819 220.142 351.091 219.432 350.619 218.704 350.765 218.301 350.846 217.897 350.895 217.494 350.925 215.627 351.062 213.757 350.847 211.892 351.101 209.477 351.429 207.134 352.089 204.746 352.565 203.793 352.753 202.831 352.912 201.853 352.998 197.873 353.363 193.922 353.523 189.982 353.592 180.645 353.756 171.376 353.359 161.97 353.493 156.123 353.6 150.272 353.789 144.424 354.059 138.579 354.329 132.737 354.677 126.906 355.088 124.59 355.252 113.653 355.409 104.097 355.222 99.294 355.127 94.842 354.951 92.028 354.63 91.075 354.521 89.997 354.279 89.817 354.237L89.818 354.239zM41.9899 241.809C42.4849 243.814 43.1469 245.778 43.6339 247.781 43.8309 248.59 43.9959 249.405 44.1069 250.233 44.7909 255.268 44.9829 260.849 46.1099 266.069 46.9139 269.793 48.1979 273.329 50.3469 276.407 51.2279 277.661 52.2599 278.768 53.3919 279.779 57.3939 283.359 62.7589 285.621 66.3899 289.698 66.9109 290.283 67.2869 291.358 67.7049 292.6 68.2909 294.342 68.8599 296.391 69.5449 298.257 70.6419 301.245 72.1729 303.718 74.1559 304.571 76.1119 305.411 78.8089 305.057 82.2479 301.555 82.7729 301.018 83.2159 300.466 83.6009 299.878 83.9799 299.298 84.3029 298.682 84.5919 298.005 86.3919 293.784 86.0939 290.04 84.6719 286.57 83.1649 282.893 80.3369 279.534 77.5939 276.216 75.0139 273.096 72.4859 270.034 71.5959 266.62 71.3209 265.575 71.2399 264.509 71.2809 263.44 71.3479 261.705 71.7119 259.969 72.0819 258.303 72.2529 257.581 71.8059 256.855 71.0849 256.684 70.3629 256.513 69.6379 256.959 69.4669 257.681 69.0089 259.496 68.5709 261.388 68.4389 263.285 68.3439 264.638 68.4109 265.993 68.7159 267.328 69.6019 271.169 72.2229 274.736 75.0219 278.291 77.4679 281.397 80.0439 284.499 81.3839 287.892 82.4299 290.543 82.6649 293.382 81.2779 296.581 81.0729 297.053 80.8459 297.487 80.5779 297.892 80.3169 298.287 80.0169 298.653 79.6619 299.012 78.6849 300.004 77.8339 300.672 77.0659 301.041 76.5669 301.282 76.1429 301.386 75.7629 301.289 75.2849 301.167 74.9239 300.782 74.5769 300.311 73.2779 298.556 72.4829 295.644 71.6799 293.079 70.8969 290.579 70.0659 288.368 69.0909 287.281 65.7919 283.603 61.1639 281.316 57.2639 278.346 55.7449 277.189 54.3449 275.92 53.2369 274.363 51.3189 271.685 50.2029 268.576 49.4429 265.32 48.2489 260.204 47.9269 254.723 47.1469 249.787 46.9979 248.855 46.7909 247.941 46.5459 247.033 46.0069 245.037 45.2949 243.087 44.7489 241.091 44.5509 240.328 43.7719 239.872 43.0099 240.069 42.2479 240.268 41.7909 241.047 41.9889 241.808L41.9899 241.809zM94.8449 256.129C94.5949 255.449 94.5589 254.529 94.5829 253.495 94.6149 252.135 94.8589 250.6 95.2219 249.098 95.5789 247.623 96.0589 246.181 96.6869 245.007 97.1109 244.212 97.5759 243.543 98.1329 243.154 99.8609 241.91 101.035 241.988 101.814 242.966 102.927 244.367 103.493 246.653 103.491 248.478 103.448 249.218 104.014 249.856 104.754 249.898 105.494 249.942 106.131 249.375 106.174 248.635 106.416 246.607 106.164 244.074 105.308 242.124 104.822 241.014 104.104 240.109 103.245 239.488 101.561 238.272 99.1579 238.015 96.0399 240.179 94.1019 241.562 92.4699 244.825 91.7699 248.346 91.5399 249.502 91.4029 250.677 91.3689 251.797 91.3029 253.994 91.5979 255.972 92.2229 257.251 92.5329 257.975 93.3709 258.31 94.0949 258 94.8179 257.692 95.1549 256.853 94.8449 256.129z" clip-rule="evenodd"></path><path fill="#000" fill-rule="evenodd" d="M94.375 274.095C94.201 271.754 94.05 269.201 94.063 266.625C94.071 265.013 94.148 263.396 94.364 261.817C94.715 259.252 95.426 256.793 96.859 254.696C98.092 252.864 99.363 251.641 100.59 250.975C101.527 250.464 102.396 250.29 103.14 250.529C103.912 250.779 104.513 251.413 104.868 252.337C105.378 253.665 105.487 255.445 104.997 257.561C104.798 258.275 105.216 259.016 105.93 259.217C106.645 259.416 107.386 258.997 107.586 258.283C108.702 254.869 108.421 252.009 107.445 250.068C106.735 248.657 105.611 247.697 104.295 247.209C102.754 246.636 100.868 246.749 98.886 247.794C97.243 248.659 95.496 250.23 93.844 252.658C92.118 255.237 91.196 258.23 90.834 261.371C90.632 263.122 90.591 264.916 90.675 266.697C90.8 269.366 91.189 271.995 91.54 274.405C91.626 275.187 92.33 275.753 93.113 275.668C93.895 275.582 94.461 274.877 94.375 274.095Z" clip-rule="evenodd"></path><path fill="#000" fill-rule="evenodd" d="M94.1819 275.8C94.6199 272.43 95.4909 269.625 96.9499 267.206 98.3849 264.829 100.421 262.846 103.303 261.123 104.465 260.417 106.094 259.826 107.673 259.749 108.941 259.687 110.205 259.945 110.975 261.026 111.544 261.817 111.534 262.943 111.407 264.056 111.247 265.469 110.822 266.891 110.419 267.919 109.635 270.022 109.056 271.934 108.302 273.824 107.83 275.01 107.299 276.19 106.574 277.4 106.168 278.02 106.343 278.855 106.964 279.26 107.585 279.665 108.418 279.491 108.824 278.871 109.737 277.587 110.441 276.324 111.063 275.041 111.961 273.188 112.664 271.292 113.595 269.222 114.237 267.721 114.944 265.526 115.052 263.461 115.141 261.763 114.8 260.152 113.936 258.921 112.686 257.161 110.858 256.317 108.849 256.137 106.263 255.908 103.368 256.847 101.422 258.041 98.0139 260.171 95.5969 262.588 93.9919 265.497 92.4259 268.335 91.6229 271.623 91.3449 275.514 91.2659 276.296 91.8379 276.996 92.6209 277.075 93.4039 277.153 94.1029 276.582 94.1819 275.798V275.8zM102.947 285.333C102.489 286.291 101.893 287.2 101.302 288.154 100.743 289.056 100.161 289.969 99.5089 290.844 98.8719 291.698 98.1609 292.505 97.4499 293.314 96.7299 294.135 96.0649 294.979 95.2539 295.708 94.6479 296.136 94.5029 296.975 94.9299 297.582 95.3569 298.188 96.1959 298.332 96.8029 297.904 97.9159 297.303 98.9769 296.641 99.9329 295.813 100.881 294.99 101.687 294.013 102.429 293.014 103.181 292.001 103.863 290.944 104.388 289.834 104.937 288.677 105.316 287.487 105.624 286.314 105.895 285.574 105.515 284.755 104.776 284.484 104.037 284.214 103.218 284.593 102.947 285.333zM51.606 152.167C51.596 154.644 51.838 157.105 52.228 159.554 53.107 165.078 54.75 170.535 55.791 175.973 57.11 182.538 58.8339 192.716 61.2319 201.932 62.9769 208.635 65.0979 214.831 67.5869 218.875 69.4139 221.815 72.51 224.844 75.997 227.825 80.53 231.701 85.711 235.534 89.091 239.348 90.781 241.256 92.037 243.116 92.387 244.993 92.51 245.724 93.2029 246.217 93.9349 246.096 94.6669 245.973 95.161 245.279 95.038 244.547 94.693 242.23 93.3349 239.836 91.3389 237.424 88.0079 233.398 82.868 229.25 78.3 225.185 75.173 222.401 72.307 219.681 70.664 216.982 68.326 213.173 66.407 207.317 64.75 201.01 62.349 191.87 60.545 181.785 59.196 175.277 58.028 169.892 56.275 164.502 55.251 159.03 54.824 156.748 54.518 154.453 54.458 152.135 54.449 151.348 53.803 150.716 53.016 150.725 52.229 150.734 51.597 151.381 51.606 152.167zM384.142 301.066C374.672 300.977 366.026 304.096 359.557 309.235 352.328 314.98 347.828 323.25 347.765 332.422 347.746 341.627 352.21 349.955 359.412 355.787 365.891 361.033 374.587 364.249 384.143 364.251 393.697 364.245 402.39 361.023 408.868 355.777 416.066 349.945 420.533 341.625 420.517 332.421 420.468 323.243 415.974 314.965 408.753 309.207 402.282 304.048 393.628 300.912 384.143 300.984V301.065L384.142 301.066zM384.142 303.836C392.884 303.904 400.817 306.895 406.717 311.727 413.063 316.923 417.047 324.272 417.003 332.422 416.99 340.544 412.968 347.844 406.603 352.975 400.712 357.722 392.815 360.62 384.142 360.612 375.473 360.614 367.579 357.712 361.691 352.965 355.328 347.835 351.303 340.542 351.286 332.422 351.23 324.267 355.205 316.909 361.545 311.698 367.449 306.848 375.387 303.838 384.142 303.754V303.836z" clip-rule="evenodd"></path><path fill="#000" fill-rule="evenodd" d="M369.509 315.243C367.774 316.05 366.618 317.195 365.749 318.532C364.586 320.322 364.003 322.506 363.173 324.702C360.659 331.419 360.236 338.396 362.523 343.663C364.91 349.163 370.162 352.974 379.14 352.845C380.815 352.819 382.456 352.882 384.062 352.685C385.267 352.537 386.456 352.246 387.629 351.705C388.422 351.34 389.218 350.928 389.984 350.468C390.771 349.996 391.527 349.473 392.221 348.902C394.298 347.19 395.419 345.023 395.422 343.064C395.426 340.908 394.222 338.79 391.078 337.585C389.847 337.113 388.058 337.15 386.136 337.377C384.246 337.601 382.183 338.034 380.705 337.617C380.065 337.437 379.731 336.928 379.711 335.963C379.672 334.214 380.218 333.227 381.207 332.67C383.17 331.564 386.091 331.58 388.56 330.951C390.859 330.364 392.827 329.33 393.926 327.237C395.76 323.731 395.161 321.108 393.501 319.357C391.253 316.986 386.574 316.239 382.756 317.491C382.048 317.709 381.651 318.463 381.87 319.172C382.09 319.88 382.844 320.278 383.552 320.058C385.862 319.382 388.58 319.574 390.377 320.646C391.046 321.044 391.564 321.585 391.802 322.279C392.116 323.197 391.885 324.33 391.11 325.709C390.222 327.295 388.411 327.622 386.559 327.924C384.061 328.333 381.413 328.553 379.502 329.592C377.502 330.681 376.091 332.513 376.134 336.024C376.159 337.691 376.657 338.839 377.371 339.65C377.981 340.344 378.777 340.809 379.718 341.081C381.319 341.541 383.458 341.361 385.548 341.106C387.174 340.909 388.756 340.585 389.776 340.977C391.078 341.477 391.788 342.166 391.786 343.058C391.784 344.108 391.021 345.177 389.908 346.095C389.351 346.555 388.742 346.972 388.111 347.355C387.459 347.748 386.781 348.1 386.106 348.412C385.287 348.793 384.455 348.988 383.611 349.094C382.131 349.281 380.62 349.212 379.076 349.24C371.946 349.386 367.669 346.594 365.717 342.251C363.67 337.7 364.047 331.651 366.113 325.77C366.811 323.765 367.242 321.76 368.252 320.115C368.818 319.192 369.58 318.392 370.743 317.812C371.453 317.47 371.751 316.618 371.411 315.909C371.069 315.199 370.217 314.901 369.507 315.243H369.509Z" clip-rule="evenodd"></path><path fill="#000" fill-rule="evenodd" d="M402.444 322C401.292 322.446 400.219 323.09 399.268 323.878 398.621 324.412 398.056 325.03 397.561 325.677 396.097 327.597 395.343 329.859 395.505 331.852 395.616 333.203 396.092 334.495 397.101 335.49 398.142 336.514 399.705 337.301 401.946 337.505 402.675 337.641 403.378 337.16 403.516 336.432 403.652 335.703 403.171 335 402.441 334.862 401.338 334.538 400.572 334.029 399.996 333.484 399.744 333.244 399.571 332.973 399.425 332.7 399.051 332.001 399.05 331.188 399.242 330.353 399.496 329.261 400.102 328.167 400.889 327.161 401.671 326.166 402.575 325.209 403.688 324.566 404.394 324.222 404.692 323.37 404.349 322.662 404.006 321.954 403.153 321.656 402.445 322H402.444zM119.863 167.097L131.416 172.473C132.018 172.907 132.858 172.77 133.292 172.168 133.726 171.566 133.589 170.726 132.987 170.292 132.154 169.512 131.328 168.781 130.403 168.153 129.789 167.736 129.133 167.391 128.472 167.059 127.011 166.325 125.5 165.678 123.926 165.184 122.899 164.862 121.852 164.649 120.79 164.401 120.046 164.145 119.234 164.541 118.978 165.286 118.722 166.031 119.118 166.842 119.863 167.098V167.097zM116.636 185.506C117.571 185.732 118.512 185.913 119.485 186.015 120.368 186.107 121.262 186.125 122.156 186.142 123.432 186.166 124.708 186.175 125.967 186.22 126.51 186.239 127.048 186.256 127.586 186.279 128.392 186.315 129.176 186.309 129.969 186.449 130.676 186.673 131.432 186.281 131.656 185.574 131.88 184.867 131.488 184.111 130.781 183.887 129.955 183.498 129.118 183.198 128.231 182.971 127.662 182.825 127.082 182.727 126.493 182.663 124.578 182.453 122.604 182.521 120.657 182.558 120.162 182.568 119.673 182.593 119.182 182.612 118.45 182.642 117.736 182.697 117.014 182.679 116.234 182.575 115.516 183.123 115.412 183.903 115.308 184.683 115.856 185.402 116.636 185.506zM361.835 164.647C363.503 164.401 365.17 164.212 366.833 163.939 369.317 163.531 371.787 163.042 374.259 162.574 375.358 162.366 376.459 162.165 377.55 161.916 379.197 161.541 380.806 161.077 382.446 160.67 383.177 160.55 383.676 159.859 383.556 159.127 383.436 158.395 382.744 157.898 382.013 158.017 380.315 158.156 378.63 158.253 376.943 158.464 375.823 158.604 374.713 158.802 373.603 159.001 371.105 159.448 368.61 159.919 366.142 160.512 364.493 160.908 362.878 161.399 361.243 161.858 360.473 162.022 359.982 162.78 360.145 163.549 360.309 164.319 361.066 164.81 361.836 164.647H361.835zM364.368 181.776C365.399 181.334 366.429 180.968 367.446 180.564 368.471 180.157 369.483 179.746 370.501 179.353 372.34 178.642 374.209 178.043 376.087 177.374 377.336 176.929 378.545 176.399 379.829 175.946 380.55 175.771 380.992 175.043 380.817 174.322 380.641 173.601 379.913 173.159 379.193 173.334 377.736 173.54 376.318 173.722 374.924 174.053 373.508 174.39 372.14 174.865 370.787 175.362 369.429 175.861 368.083 176.398 366.779 177.055 365.495 177.701 364.272 178.464 363.027 179.259 362.333 179.629 362.069 180.494 362.44 181.188 362.81 181.882 363.673 182.145 364.367 181.775L364.368 181.776zM367.492 202.14C369.1 201.957 370.698 201.804 372.293 201.555 373.877 201.307 375.448 200.982 377.018 200.665 378.582 200.35 380.152 200.052 381.702 199.67 383.258 199.286 384.767 198.798 386.318 198.384 387.049 198.255 387.537 197.558 387.409 196.827 387.281 196.096 386.583 195.608 385.852 195.736 384.298 195.872 382.76 195.972 381.22 196.185 380.2 196.326 379.19 196.525 378.183 196.722 375.923 197.162 373.664 197.615 371.423 198.154 369.931 198.512 368.469 198.95 366.978 199.334 366.205 199.475 365.69 200.218 365.833 200.994 365.976 201.767 366.719 202.28 367.493 202.139L367.492 202.14zM161.579 334.673C162.358 334.421 163.133 334.22 163.897 333.923 165.024 333.486 166.111 332.952 167.196 332.417 167.677 332.179 168.161 331.943 168.619 331.659 169.324 331.224 169.942 330.718 170.617 330.236 171.285 329.912 171.561 329.107 171.237 328.441 170.913 327.773 170.108 327.495 169.44 327.821 168.647 328.054 167.872 328.224 167.093 328.505 166.589 328.686 166.105 328.917 165.618 329.145 164.527 329.658 163.433 330.17 162.387 330.771 161.677 331.18 161.034 331.655 160.349 332.103 159.639 332.441 159.338 333.294 159.677 334.004 160.016 334.714 160.868 335.015 161.578 334.675L161.579 334.673zM169.472 341.407C170.108 341.134 170.61 340.963 171.029 340.743 171.996 340.237 172.489 339.869 173.129 339.448 173.404 339.267 173.707 339.078 174.033 338.794 174.398 338.477 174.729 338.068 175.226 337.545 175.85 337.143 176.029 336.312 175.628 335.688 175.226 335.064 174.395 334.883 173.771 335.285 173.061 335.533 172.533 335.662 172.085 335.87 171.435 336.171 171.021 336.478 170.577 336.767 170.152 337.042 169.7 337.315 169.134 337.794 168.757 338.113 168.389 338.53 167.869 339.05 167.219 339.492 167.048 340.378 167.49 341.03 167.932 341.68 168.82 341.849 169.472 341.407zM174.953 305.009C177.275 307.056 179.72 309.168 182.349 311.15 186.17 314.03 190.319 316.691 194.619 318.909 196.562 319.91 198.539 320.829 200.556 321.578 203.676 322.739 206.868 323.528 210.061 323.986 210.79 324.122 211.493 323.642 211.631 322.913 211.767 322.184 211.286 321.481 210.556 321.343 207.609 320.659 204.73 319.569 201.864 318.327 199.993 317.515 198.127 316.643 196.293 315.684 192.16 313.524 188.187 310.948 184.4 308.318 181.75 306.477 179.169 304.65 176.765 302.806 176.157 302.307 175.259 302.394 174.758 303.002 174.258 303.61 174.345 304.51 174.953 305.009zM286.41 320.893C288.929 320.75 292.301 320.382 296.251 319.413 299.121 318.708 302.287 317.671 305.659 316.274 308.497 315.099 311.499 313.69 314.529 311.877 317.203 310.277 319.874 308.35 322.594 306.185 323.193 305.748 323.325 304.906 322.888 304.307 322.453 303.708 321.611 303.574 321.012 304.011 318.22 305.866 315.445 307.397 312.795 308.81 309.816 310.399 306.978 311.787 304.265 312.913 301.055 314.245 298.048 315.238 295.344 316.019 291.648 317.087 288.521 317.756 286.151 318.056 285.367 318.126 284.789 318.821 284.86 319.605 284.932 320.389 285.626 320.967 286.41 320.895V320.893zM345.567 188.938C345.345 191.024 345.389 193.108 345.571 195.192 345.969 199.774 347.063 204.351 347.241 208.951 347.385 211.842 347.075 219.423 346.52 228.45 346.141 234.651 345.625 241.529 345.06 248.054 344.743 251.699 344.412 255.231 344.072 258.475 343.318 265.649 342.541 271.367 341.556 273.55 341.237 274.219 341.521 275.023 342.19 275.342 342.859 275.663 343.663 275.377 343.982 274.708 345.124 272.441 346.367 266.451 347.409 258.881 347.856 255.62 348.265 252.06 348.628 248.386 349.276 241.829 349.778 234.907 350.147 228.669 350.688 219.455 350.889 211.716 350.72 208.765 350.403 204.111 349.186 199.504 348.627 194.876 348.4 192.986 348.276 191.092 348.409 189.187 348.478 188.403 347.896 187.711 347.112 187.642 346.328 187.573 345.636 188.154 345.569 188.938H345.567zM333.288 169.062C333.737 172.396 334.186 175.383 334.71 178.179 335.596 182.913 336.553 187.097 337.261 191.595 337.56 193.499 337.812 195.46 338.061 197.539 338.389 200.284 338.72 203.221 338.877 206.538 338.879 207.28 339.483 207.88 340.225 207.879 340.967 207.878 341.567 207.273 341.564 206.531 341.708 203.112 341.733 200.062 341.552 197.22 341.415 195.053 341.152 193.017 340.853 191.038 340.159 186.476 339.223 182.225 338.135 177.467 337.506 174.727 336.775 171.835 336.1 168.581 335.968 167.805 335.23 167.283 334.455 167.416 333.678 167.549 333.157 168.286 333.291 169.062H333.288zM296.394 83.206C301.154 86.547 305.382 90.58 309.228 95.016 313.023 99.395 316.428 104.186 319.427 109.255 322.417 114.31 324.983 119.638 327.263 125.018 329.608 130.55 331.671 136.129 333.306 141.64 333.5 142.356 334.238 142.779 334.955 142.585 335.67 142.391 336.093 141.652 335.899 140.936 334.493 135.235 332.768 129.4 330.524 123.687 328.324 118.085 325.639 112.607 322.557 107.402 319.441 102.137 315.899 97.147 311.856 92.686 307.734 88.137 303.091 84.15 297.989 80.843 297.335 80.403 296.449 80.575 296.009 81.227 295.569 81.879 295.741 82.766 296.393 83.206H296.394z" clip-rule="evenodd"></path><path fill="#000" fill-rule="evenodd" d="M268.999 70.176C272.283 72.406 275.806 74.402 279.351 76.38 282.781 78.295 286.227 80.199 289.409 82.434 292.071 84.306 294.564 86.391 296.703 88.904 297.801 90.185 298.794 91.526 299.737 92.894 301.296 95.156 302.686 97.512 304.099 99.851 306.296 103.484 308.531 107.075 311.257 110.358 311.713 110.943 312.557 111.046 313.142 110.59 313.727 110.133 313.831 109.288 313.375 108.704 311.243 105.797 309.541 102.654 307.819 99.51 306.64 97.361 305.457 95.211 304.17 93.115 302.769 90.832 301.231 88.627 299.468 86.546 296.348 82.903 292.583 80.043 288.529 77.561 286.179 76.122 283.739 74.799 281.276 73.525 277.64 71.644 273.96 69.869 270.545 67.781 269.884 67.355 269.002 67.545 268.575 68.207 268.149 68.868 268.339 69.751 269 70.178L268.999 70.176zM210.222 72.2C216.744 73.719 223.231 76.003 229.545 78.718 235.85 81.43 241.985 84.578 247.712 88.06 249.49 89.132 251.186 90.315 252.851 91.542 256.875 94.506 260.705 97.733 264.882 100.464 267.563 102.186 270.419 103.531 273.268 104.838 276.015 106.097 278.75 107.322 281.263 108.942 283.292 110.252 285.186 111.805 286.809 113.852 287.256 114.443 288.1 114.56 288.691 114.112 289.283 113.664 289.399 112.82 288.952 112.229 287.229 109.846 285.185 107.993 282.96 106.425 280.39 104.613 277.574 103.189 274.727 101.78 272.058 100.46 269.357 99.16 266.847 97.474 262.733 94.762 258.977 91.547 255.012 88.616 253.259 87.32 251.464 86.08 249.589 84.95 243.691 81.422 237.407 78.164 230.892 75.506 224.347 72.836 217.579 70.77 210.828 69.413 210.06 69.246 209.301 69.735 209.133 70.504 208.966 71.273 209.455 72.033 210.223 72.2H210.222zM188.24 86.318C190.204 86.191 192.142 86.271 194.075 86.442 197.052 86.704 200.01 87.201 203 87.651 211.18 88.751 219.412 90.266 227.458 92.403 230.659 93.254 233.827 94.212 236.963 95.262 241.667 96.838 246.293 98.619 250.747 100.829 251.402 101.176 252.216 100.926 252.563 100.27 252.91 99.614 252.66 98.8 252.005 98.453 248.439 96.435 244.764 94.639 240.98 93.094 238.459 92.065 235.892 91.15 233.294 90.327 228.442 88.791 223.481 87.581 218.485 86.583 213.494 85.586 208.461 84.8309 203.454 84.1989 200.382 83.8529 197.339 83.443 194.286 83.305 192.195 83.21 190.1 83.239 187.99 83.478 187.206 83.547 186.626 84.24 186.695 85.024 186.765 85.808 187.458 86.388 188.242 86.318H188.24zM240.519 56.535C241.664 56.752 242.765 57.049 243.877 57.317 244.997 57.588 246.107 57.859 247.212 58.154 249.217 58.69 251.179 59.356 253.182 59.96 254.53 60.366 255.892 60.677 257.264 61.08 257.953 61.356 258.735 61.021 259.012 60.332 259.287 59.643 258.952 58.86 258.263 58.585 256.903 57.886 255.585 57.172 254.199 56.592 252.79 56.004 251.338 55.55 249.885 55.129 248.417 54.704 246.932 54.324 245.416 54.083 243.908 53.843 242.384 53.75 240.823 53.699 240.041 53.615 239.336 54.183 239.253 54.965 239.168 55.748 239.737 56.451 240.52 56.534L240.519 56.535zM160.982 142.698C162.794 138.708 164.709 134.947 166.666 131.311 168.701 127.534 170.808 123.909 173.121 120.43 175.439 116.945 177.973 113.621 180.7 110.34 183.327 107.181 186.105 104.043 189.246 100.997 189.794 100.498 189.834 99.647 189.336 99.099 188.836 98.55 187.987 98.51 187.437 99.009 184.009 101.929 180.857 104.889 178.035 108.04 175.086 111.331 172.491 114.806 170.093 118.416 167.709 122.002 165.525 125.737 163.548 129.692 161.666 133.459 159.993 137.427 158.357 141.586 158.05 142.311 158.389 143.148 159.114 143.455 159.839 143.762 160.676 143.423 160.983 142.698H160.982zM150.208 165.043C149.269 167.733 148.296 170.342 147.478 172.962 146.187 177.098 145.178 181.208 144.596 185.382 144.333 187.271 144.15 189.176 144.137 191.109 144.117 193.914 144.421 196.755 144.993 199.685 145.099 200.42 145.782 200.929 146.516 200.823 147.25 200.716 147.76 200.034 147.653 199.299 147.388 196.519 147.462 193.855 147.639 191.239 147.761 189.437 147.935 187.66 148.192 185.894 148.775 181.886 149.773 177.955 150.837 173.929 151.534 171.294 152.21 168.614 152.934 165.878 153.165 165.126 152.741 164.328 151.989 164.097 151.237 163.867 150.438 164.29 150.208 165.043zM47.0489 448.92C68.6149 443.395 90.2479 439.593 111.934 437.046 126.534 435.33 141.158 434.19 155.805 433.496 210.574 430.901 265.681 434.646 320.978 438.416 341.173 439.727 361.526 440.588 381.782 442.093 390.455 442.738 399.109 443.49 407.725 444.466 414.099 445.183 420.291 446.876 426.6 447.873 428.215 448.128 429.836 448.342 431.471 448.483 432.211 448.548 432.865 448.002 432.93 447.262 432.995 446.524 432.449 445.87 431.709 445.805 430.141 445.661 428.584 445.447 427.037 445.19 420.693 444.129 414.478 442.352 408.069 441.559 396.547 440.143 384.955 439.1 373.338 438.242 355.959 436.959 338.528 436.084 321.221 434.854 265.785 431.084 210.533 427.235 155.633 429.956 140.905 430.685 126.202 431.897 111.531 433.708 89.7239 436.402 67.9889 440.434 46.3299 446.16 45.5689 446.357 45.1109 447.138 45.3089 447.899 45.5069 448.66 46.2859 449.118 47.0479 448.919L47.0489 448.92z" clip-rule="evenodd"></path></svg>